<svg xmlns="http://www.w3.org/2000/svg" viewBox="0 0 127 56"><defs><style>.cls-1{fill:#ffe300;}.cls-2{fill:#1d7bff;}</style></defs><title>Asset 36</title><g id="Layer_2" data-name="Layer 2"><g id="Layer_1-2" data-name="Layer 1"><rect class="cls-1" width="127" height="56" rx="28"/><path class="cls-2" d="M27.33,28.81V34.6h-3V20.13h6.36c3.15,0,4.85,1.74,4.85,4a3.48,3.48,0,0,1-2.1,3.43c.72.26,1.8,1,1.8,3.6v.71a12.05,12.05,0,0,0,.2,2.76h-3a10,10,0,0,1-.3-3.25v-.21c0-1.58-.4-2.33-2.74-2.33Zm0-2.49H30c1.71,0,2.37-.65,2.37-1.86s-.77-1.84-2.3-1.84h-2.7Z"/><path class="cls-2" d="M40.07,29.81c0,1.36.69,2.69,2.18,2.69a1.71,1.71,0,0,0,1.9-1.16h3a4.75,4.75,0,0,1-5,3.51c-3.57,0-5.13-2.67-5.13-5.52,0-3.41,1.75-5.85,5.24-5.85,3.73,0,5,2.7,5,5.42a6.56,6.56,0,0,1,0,.91ZM44.27,28c0-1.26-.53-2.33-2-2.33s-2,1-2.15,2.33Z"/><path class="cls-2" d="M59.41,33.28c0,3.49-1.29,5.69-5.4,5.69s-4.75-2.21-4.86-3.44h3.07a1.73,1.73,0,0,0,1.92,1.26c2,0,2.32-1.19,2.32-3.32V33a3.22,3.22,0,0,1-3.06,1.52c-2.86,0-4.5-2.34-4.5-5.26,0-3.4,2-5.73,4.76-5.73,1.86,0,2.64.88,2.8,1.39,0-.3.1-1,.12-1.14h2.85c0,1,0,2.08,0,3.12ZM52,29.07c0,1.87.93,3,2.26,3,1.81,0,2.3-1.24,2.3-3.06s-.33-3.09-2.24-3.09C53,25.89,52,26.9,52,29.07Z"/><path class="cls-2" d="M62.08,19.28h3V22h-3Zm0,4.45h3V34.6h-3Z"/><path class="cls-2" d="M69.9,31.34A1.89,1.89,0,0,0,72,32.69c1.11,0,1.52-.4,1.52-1.06s-.47-1-2-1.35c-3.54-.88-4.12-2-4.12-3.51s1.13-3.29,4.41-3.29,4.41,1.8,4.51,3.27H73.39c-.1-.4-.37-1.16-1.78-1.16-1,0-1.32.45-1.32.93s.34.81,2.1,1.22c3.63.84,4.14,2.08,4.14,3.68,0,1.8-1.37,3.43-4.68,3.43s-4.66-1.59-4.9-3.51Z"/><path class="cls-2" d="M77.34,23.73H79V20.79h3v2.94h2.13V26H82v5.36c0,.83.26,1.15,1.15,1.15a6,6,0,0,0,.69,0v2.07a7,7,0,0,1-2,.21c-2.13,0-2.82-1.13-2.82-3V26H77.34Z"/><path class="cls-2" d="M88.2,29.81c0,1.36.69,2.69,2.18,2.69a1.71,1.71,0,0,0,1.9-1.16h3a4.75,4.75,0,0,1-5,3.51c-3.58,0-5.14-2.67-5.14-5.52,0-3.41,1.75-5.85,5.24-5.85,3.74,0,5,2.7,5,5.42a6.56,6.56,0,0,1,0,.91ZM92.4,28c0-1.26-.52-2.33-2-2.33s-2,1-2.14,2.33Z"/><path class="cls-2" d="M97.53,26.68c0-1.08,0-2,0-2.95h2.95c0,.25.08,1.33.08,1.91A3.48,3.48,0,0,1,104,23.48v2.87c-2.18-.05-3.48.54-3.48,3.51V34.6h-3Z"/></g></g></svg>