<svg xmlns="http://www.w3.org/2000/svg" viewBox="0 0 597 56"><defs><style>.cls-1{fill:#ffe300;}.cls-2{fill:#1d7bff;}</style></defs><title>Asset 28</title><g id="Layer_2" data-name="Layer 2"><g id="Layer_1-2" data-name="Layer 1"><rect class="cls-1" width="597" height="56"/><path class="cls-2" d="M194.4,26.14v5.79h-3.06V17.46h6.36c3.16,0,4.86,1.74,4.86,4a3.47,3.47,0,0,1-2.11,3.43c.72.26,1.8,1,1.8,3.6v.71a11.43,11.43,0,0,0,.21,2.76h-3a10.3,10.3,0,0,1-.3-3.25v-.21c0-1.58-.4-2.33-2.73-2.33Zm0-2.49H197c1.72,0,2.38-.65,2.38-1.86S198.63,20,197.1,20h-2.7Z"/><path class="cls-2" d="M207.14,27.14c0,1.36.68,2.69,2.18,2.69a1.7,1.7,0,0,0,1.89-1.16h3a4.78,4.78,0,0,1-5,3.52c-3.58,0-5.13-2.68-5.13-5.53,0-3.41,1.75-5.85,5.24-5.85,3.73,0,5,2.7,5,5.42a6.56,6.56,0,0,1,0,.91Zm4.19-1.85c0-1.26-.52-2.33-2-2.33s-2,1-2.14,2.33Z"/><path class="cls-2" d="M223.55,30.78a3.19,3.19,0,0,1-3,1.41c-2.42,0-4.57-1.81-4.57-5.58,0-3.51,2.11-5.8,4.82-5.8,1.74,0,2.53.7,2.78,1.28,0-.28.06-.76.1-1h2.84c0,.9,0,2,0,3V36.1h-2.92ZM219,26.51c0,1.94.7,3.27,2.29,3.27,1.85,0,2.26-1.34,2.26-3.31s-.41-3.24-2.21-3.24C219.78,23.23,219,24.56,219,26.51Z"/><path class="cls-2" d="M238.74,28.78c0,1,0,2.18,0,3.15h-2.95c0-.29-.06-.87-.08-1.25a3.11,3.11,0,0,1-3,1.51c-2.22,0-3.63-1.35-3.63-4V21.07h3v6.47c0,1.2.38,2.19,1.68,2.19s1.94-.73,1.94-2.88V21.07h3Z"/><path class="cls-2" d="M243.93,27.14c0,1.36.68,2.69,2.18,2.69a1.72,1.72,0,0,0,1.9-1.16h3a4.78,4.78,0,0,1-5,3.52c-3.58,0-5.13-2.68-5.13-5.53,0-3.41,1.75-5.85,5.24-5.85,3.73,0,5,2.7,5,5.42a6.56,6.56,0,0,1,0,.91Zm4.2-1.85c0-1.26-.53-2.33-2-2.33s-2,1-2.14,2.33Z"/><path class="cls-2" d="M255.43,28.67A1.89,1.89,0,0,0,257.49,30c1.11,0,1.51-.4,1.51-1.06s-.47-1-2-1.35c-3.54-.87-4.12-2-4.12-3.5s1.13-3.3,4.4-3.3,4.42,1.8,4.51,3.28h-2.86c-.1-.41-.37-1.16-1.78-1.16-1,0-1.32.44-1.32.93s.34.8,2.11,1.21c3.62.84,4.13,2.08,4.13,3.68,0,1.8-1.36,3.44-4.68,3.44s-4.66-1.6-4.9-3.52Z"/><path class="cls-2" d="M262.86,21.07h1.68V18.12h3v2.95h2.13v2.26h-2.13v5.36c0,.83.25,1.15,1.15,1.15a5.83,5.83,0,0,0,.68,0v2.07a6.59,6.59,0,0,1-2,.21c-2.12,0-2.82-1.13-2.82-3V23.33h-1.68Z"/><path class="cls-2" d="M277,17.46h10.1V20h-7.05v3.55h6.61v2.57h-6.61v5.79H277Z"/><path class="cls-2" d="M299.08,26.48c0,3.29-2,5.71-5.41,5.71s-5.33-2.41-5.33-5.65,2-5.73,5.48-5.73C297,20.81,299.08,23.07,299.08,26.48Zm-7.69,0c0,2.09.9,3.33,2.35,3.33S296,28.59,296,26.52c0-2.28-.83-3.35-2.33-3.35S291.39,24.2,291.39,26.5Z"/><path class="cls-2" d="M301.15,24c0-1.08,0-2,0-2.94h2.95c0,.24.08,1.32.08,1.9a3.49,3.49,0,0,1,3.49-2.16v2.88c-2.19-.06-3.49.53-3.49,3.51v4.73h-3Z"/><path class="cls-2" d="M328.21,24.65c0,4-2.42,7.49-7.12,7.49-4.55,0-6.92-3.3-6.92-7.44s2.62-7.45,7.12-7.45C325.52,17.25,328.21,20.21,328.21,24.65Zm-10.81,0c0,2.83,1.24,5,3.8,5,2.79,0,3.77-2.33,3.77-4.91,0-2.74-1.12-4.9-3.82-4.9S317.4,21.81,317.4,24.63Zm7.76,5.09,4.11,2.82-1.81,2.08-5.1-3.54Z"/><path class="cls-2" d="M340,28.78c0,1,0,2.18,0,3.15h-3c0-.29-.06-.87-.08-1.25a3.09,3.09,0,0,1-3,1.51c-2.22,0-3.63-1.35-3.63-4V21.07h3v6.47c0,1.2.37,2.19,1.67,2.19S337,29,337,26.85V21.07h3Z"/><path class="cls-2" d="M352.93,26.48c0,3.29-2,5.71-5.41,5.71s-5.34-2.41-5.34-5.65,2-5.73,5.48-5.73C350.86,20.81,352.93,23.07,352.93,26.48Zm-7.7,0c0,2.09.9,3.33,2.35,3.33s2.29-1.24,2.29-3.31c0-2.28-.83-3.35-2.33-3.35S345.23,24.2,345.23,26.5Z"/><path class="cls-2" d="M353.88,21.07h1.67V18.12h3v2.95h2.13v2.26h-2.13v5.36c0,.83.25,1.15,1.15,1.15a5.71,5.71,0,0,0,.68,0v2.07a6.56,6.56,0,0,1-2,.21c-2.12,0-2.82-1.13-2.82-3V23.33h-1.67Z"/><path class="cls-2" d="M371.44,29.12a24.92,24.92,0,0,0,.15,2.81h-2.88a4.84,4.84,0,0,1-.15-1.06c-.39.61-1.13,1.32-3.05,1.32a3.37,3.37,0,0,1-3.73-3.41c0-2.48,2-3.62,5.18-3.62h1.55V24.5c0-.78-.28-1.54-1.68-1.54s-1.54.54-1.68,1.33h-2.86c.16-1.93,1.35-3.5,4.66-3.48,2.91,0,4.49,1.16,4.49,3.75ZM368.51,27h-1.23c-1.81,0-2.48.55-2.48,1.6A1.4,1.4,0,0,0,366.36,30c1.91,0,2.15-1.33,2.15-2.77Z"/><path class="cls-2" d="M372.9,21.07h1.68V18.12h3v2.95h2.12v2.26h-2.12v5.36c0,.83.25,1.15,1.14,1.15a6,6,0,0,0,.69,0v2.07a6.62,6.62,0,0,1-2,.21c-2.12,0-2.82-1.13-2.82-3V23.33H372.9Z"/><path class="cls-2" d="M381.39,16.61h3v2.68h-3Zm0,4.46h3V31.93h-3Z"/><path class="cls-2" d="M397.22,26.48c0,3.29-2,5.71-5.41,5.71s-5.34-2.41-5.34-5.65,2-5.73,5.48-5.73C395.15,20.81,397.22,23.07,397.22,26.48Zm-7.7,0c0,2.09.9,3.33,2.35,3.33s2.29-1.24,2.29-3.31c0-2.28-.83-3.35-2.33-3.35S389.52,24.2,389.52,26.5Z"/><path class="cls-2" d="M399.3,23.8c0-.92,0-1.93,0-2.73h2.92a11.53,11.53,0,0,1,.11,1.38,3.32,3.32,0,0,1,3.15-1.64c2.19,0,3.61,1.48,3.61,4.21v6.91h-3V25.35c0-1.22-.41-2.1-1.74-2.1s-2,.71-2,2.63v6.05h-3Z"/></g></g></svg>