<svg xmlns="http://www.w3.org/2000/svg" viewBox="0 0 180 56"><defs><style>.cls-1{fill:#ffe300;}.cls-2{fill:#1d7bff;}</style></defs><title>Asset 32</title><g id="Layer_2" data-name="Layer 2"><g id="Layer_1-2" data-name="Layer 1"><rect class="cls-1" width="180" height="56" rx="28"/><path class="cls-2" d="M67.94,28.9c0-2.47,0-5.24.1-6.88h-.1c-.68,3-2.12,7.78-3.51,12.31H61.76c-1-4-2.55-9.45-3.18-12.35h-.1c.12,1.7.18,4.68.18,7.16v5.19H55.81V19.85h4.66c1.13,3.79,2.39,8.53,2.83,10.69h0c.35-1.91,1.94-7,3.15-10.69H71V34.33h-3Z" transform="translate(-16)"/><path class="cls-2" d="M83.9,28.87c0,3.29-2,5.71-5.41,5.71s-5.34-2.4-5.34-5.65,2-5.72,5.48-5.72C81.83,23.21,83.9,25.47,83.9,28.87Zm-7.69,0c0,2.1.9,3.34,2.35,3.34s2.29-1.24,2.29-3.32c0-2.27-.84-3.35-2.33-3.35S76.21,26.6,76.21,28.89Z" transform="translate(-16)"/><path class="cls-2" d="M86,26.41c0-1.08,0-2,0-2.95h3c0,.25.08,1.32.08,1.91a3.49,3.49,0,0,1,3.49-2.16v2.87C90.28,26,89,26.61,89,29.59v4.74H86Z" transform="translate(-16)"/><path class="cls-2" d="M96.45,29.54c0,1.36.68,2.69,2.18,2.69a1.73,1.73,0,0,0,1.9-1.16h3a4.76,4.76,0,0,1-5,3.51c-3.58,0-5.13-2.68-5.13-5.53,0-3.41,1.75-5.84,5.24-5.84,3.73,0,5,2.7,5,5.41a6.63,6.63,0,0,1,0,.92Zm4.2-1.85c0-1.26-.53-2.33-2-2.33s-2,1-2.14,2.33Z" transform="translate(-16)"/><path class="cls-2" d="M111,19.85h5.74c4.21,0,7,2.78,7,7.06s-2.68,7.42-7.11,7.42H111Zm3.13,12h2.34c2.78,0,4-2.06,4-4.88,0-2.37-1.15-4.54-4-4.54h-2.36Z" transform="translate(-16)"/><path class="cls-2" d="M128.33,29.54c0,1.36.68,2.69,2.18,2.69a1.71,1.71,0,0,0,1.89-1.16h3a4.77,4.77,0,0,1-5,3.51c-3.58,0-5.13-2.68-5.13-5.53,0-3.41,1.75-5.84,5.24-5.84,3.73,0,5,2.7,5,5.41a6.63,6.63,0,0,1,0,.92Zm4.19-1.85c0-1.26-.52-2.33-2-2.33s-2,1-2.14,2.33Z" transform="translate(-16)"/><path class="cls-2" d="M136.55,23.46h1.68V20.52h3v2.94h2.12v2.26h-2.12v5.37c0,.82.25,1.14,1.14,1.14a5.71,5.71,0,0,0,.69,0v2.07a7,7,0,0,1-2,.21c-2.12,0-2.82-1.14-2.82-3V25.72h-1.68Z" transform="translate(-16)"/><path class="cls-2" d="M154.12,31.52a22.69,22.69,0,0,0,.15,2.81h-2.88a4.44,4.44,0,0,1-.15-1.06c-.39.61-1.13,1.31-3.06,1.31a3.35,3.35,0,0,1-3.72-3.41c0-2.47,2-3.62,5.17-3.62h1.55v-.66c0-.77-.27-1.53-1.67-1.53s-1.55.54-1.69,1.33H145c.17-1.94,1.36-3.5,4.66-3.48,2.92,0,4.5,1.16,4.5,3.74Zm-2.93-2.14H150c-1.81,0-2.48.56-2.48,1.6A1.39,1.39,0,0,0,149,32.43c1.91,0,2.15-1.33,2.15-2.76Z" transform="translate(-16)"/><path class="cls-2" d="M156.84,19h3v2.69h-3Zm0,4.46h3V34.33h-3Z" transform="translate(-16)"/><path class="cls-2" d="M162.56,34.33V19h3V34.33Z" transform="translate(-16)"/></g></g></svg>