<svg xmlns="http://www.w3.org/2000/svg" xmlns:xlink="http://www.w3.org/1999/xlink" viewBox="0 0 846.43 535.15"><defs><style>.cls-1{fill:none;}.cls-2{clip-path:url(#clip-path);}.cls-3{fill:#ffbe00;}.cls-4{fill:#cee2ff;}.cls-5{fill:#0d537e;}.cls-6{fill:#002e80;}.cls-7{fill:#4a80b6;}</style><clipPath id="clip-path" transform="translate(0 0)"><path class="cls-1" d="M195.7,0H610.3A106.7,106.7,0,0,1,717,106.7V500a0,0,0,0,1,0,0H89a0,0,0,0,1,0,0V106.7A106.7,106.7,0,0,1,195.7,0Z"/></clipPath></defs><title>Asset 1</title><g id="Layer_2" data-name="Layer 2"><g id="Layer_1-2" data-name="Layer 1"><g class="cls-2"><image width="780" height="621" transform="translate(89 0) scale(0.81)" xlink:href="C:%5CUsers%5CUser%5CDownloads%5CBusiness-deal.png"/></g><path class="cls-3" d="M615.54,371.19a26.84,26.84,0,0,1,24.61-24.29V331.4A42.31,42.31,0,0,0,600,371.19Z" transform="translate(0 0)"/><path class="cls-4" d="M644.41,346.9A26.85,26.85,0,0,1,669,371.19h15.5a42.32,42.32,0,0,0-40.11-39.79Z" transform="translate(0 0)"/><path class="cls-5" d="M669.08,375.44a26.87,26.87,0,0,1-24.67,25v15.49a42.31,42.31,0,0,0,40.14-40.49Z" transform="translate(0 0)"/><path class="cls-6" d="M640.15,400.44a26.87,26.87,0,0,1-24.67-25H600a42.31,42.31,0,0,0,40.14,40.49Z" transform="translate(0 0)"/><path class="cls-6" d="M.53,235.44C12.72,298.06,61.72,463.76,245,532.58a28.31,28.31,0,0,0,28.41-5.08c40.31-34.71,156.56-155.61,107.93-362.16a28.36,28.36,0,0,0-28-21.92c-40.09.69-125.17-.44-175.14-19.95a27.88,27.88,0,0,0-29.66,6.27C112,165.82,51,191.55,18.53,203.47A28.25,28.25,0,0,0,.53,235.44Z" transform="translate(0 0)"/><path class="cls-3" d="M105.64,297.69c25,3.36,68.29,9.7,84.07,15.4a4.78,4.78,0,0,0,6-2.36c7.88-16,41.54-73.84,126.05-98.08a4.8,4.8,0,0,1,5,7.71c-26.18,31-97.26,117.2-115.24,158.16a4.79,4.79,0,0,1-7.21,2l-102-74.15A4.8,4.8,0,0,1,105.64,297.69Z" transform="translate(0 0)"/><path class="cls-7" d="M360.29,259A465.77,465.77,0,0,1,292,461c-5.16,8.31,7.95,15.93,13.1,7.65A482.6,482.6,0,0,0,375.45,259C376.36,249.32,361.19,249.38,360.29,259Z" transform="translate(0 0)"/><path class="cls-7" d="M88.59,356.1a308.63,308.63,0,0,1-47.89-121c-1.6-9.61-16.21-5.53-14.62,4A319.16,319.16,0,0,0,75.5,363.75C80.89,371.83,94,364.24,88.59,356.1Z" transform="translate(0 0)"/><path class="cls-7" d="M226.81,175.07a114.78,114.78,0,0,1-68-10.54c-2.33-1.15-5.35-1.59-7.65,0L90,206.84c-8,5.51-.4,18.66,7.65,13.09l58.22-40.24a132.45,132.45,0,0,0,75,10C240.45,188.19,236.37,173.58,226.81,175.07Z" transform="translate(0 0)"/><path class="cls-3" d="M753.11,95.51c-6.23-13.7-19.18-24.94-34.06-28-16.33-3.42-31.95,3.92-37.93,19.77-6.33,16.79-6,36.71-3.6,54.19.85,6.28,10.39,3.6,9.54-2.63-2-14.39-1.72-29.78,2-43.87,1.7-6.49,4.66-12.54,10.8-15.84s13.62-3.22,20.28-1.1a40.69,40.69,0,0,1,24.78,23.42c5.49,13.77,3.09,29.25.89,43.44-1,6.23,8.56,8.91,9.53,2.63C758,130.23,760.59,112,753.11,95.51Z" transform="translate(0 0)"/><path class="cls-6" d="M762.65,220.78c-30.56,3.19-60.82,2.76-91.41-.13a10.63,10.63,0,0,1-9.57-9.42c-3.1-28.73-3.64-56.9-.14-85.59a10.61,10.61,0,0,1,9.56-9.22,495.21,495.21,0,0,1,91.52,0,10.63,10.63,0,0,1,9.62,9.6,484.71,484.71,0,0,1-.11,85.1A10.62,10.62,0,0,1,762.65,220.78Z" transform="translate(0 0)"/><path class="cls-4" d="M733.17,157.09a16.18,16.18,0,1,0-23.54,14.4l-4.94,23.36h23.76l-5.3-22.8A16.17,16.17,0,0,0,733.17,157.09Z" transform="translate(0 0)"/><path class="cls-3" d="M128.11,474.87l3,5.69a4.42,4.42,0,0,0,6.13,1.78l20.75-12a4.41,4.41,0,0,1,5.86,1.33l4.4,6.44a4.42,4.42,0,0,0,5.63,1.46l6.48-3.26a4.42,4.42,0,0,0,2-5.8l-3.25-7a4.41,4.41,0,0,1,1.71-5.62h0a4.41,4.41,0,0,1,6,1.3l10.54,15.7a4.42,4.42,0,0,0,5.72,1.45l9.75-5.11a4.41,4.41,0,0,0,2-5.64l-13.21-31a4.43,4.43,0,0,0-6.22-2.13L129.87,469A4.42,4.42,0,0,0,128.11,474.87Z" transform="translate(0 0)"/><path class="cls-3" d="M93.9,463.92C74.82,473.92,70,496.15,80,515.23s33.31,26.19,50.79,13.61c19.48-14,24.13-31.93,14.13-51S113,453.93,93.9,463.92Zm27,49.14c-9.11,6.55-21.25,2.85-26.45-7.09s-2.71-21.52,7.23-26.72,21.37-2.7,26.58,7.24S131,505.75,120.86,513.06Z" transform="translate(0 0)"/><path class="cls-5" d="M786.18,58.57c17.45,2.86,34.45,8.62,51.36,13.63,7.45,2.16,10.58,8.12,8,14.65-4.53,11.11-9.27,21.9-14.44,32.74-3.4,6.75-11.27,10.07-17.24,7.89L809.72,126a6.91,6.91,0,0,0-5.71.56l-2.76,1.54-9.43,5.28c-2,1.09-4,.31-4.45-1.69a67.73,67.73,0,0,0-2.81-9.77c-.4-1.14-.61-1.71-1.06-2.85a6.71,6.71,0,0,0-4-3.91l-4.06-1.38a14.38,14.38,0,0,1-9.32-14.43c.52-9.87,1.43-20.52,4.3-30C772.35,62.94,779.34,57.49,786.18,58.57Z" transform="translate(0 0)"/><path class="cls-3" d="M804.92,74.62c-3.34,3-4.92,4.57-7.88,7.69a2.26,2.26,0,0,1-1.92.63c-4.69-.58-7-.83-11.35-1.17a1.86,1.86,0,0,0-1.67,3c2.58,3.48,3.92,5.28,6.47,8.93a2,2,0,0,1,.28,1.87c-1.4,3.79-2.05,5.68-3.38,9.4a2.15,2.15,0,0,0,2.28,2.83c3.77-.76,5.73-1.14,9.8-1.87a2.08,2.08,0,0,1,1.8.58c3.07,3,4.53,4.55,7.28,7.58A2.05,2.05,0,0,0,810.1,113c.87-4.16,1.23-6.28,1.9-10.53a2.06,2.06,0,0,1,1.18-1.54c4.1-1.89,6.22-2.85,10.49-4.77a2,2,0,0,0,.08-3.65c-4.24-1.86-6.44-2.83-10.9-4.74a2.27,2.27,0,0,1-1.35-1.54c-.93-4.23-1.45-6.34-2.41-10.51C808.72,74.11,806.23,73.43,804.92,74.62Z" transform="translate(0 0)"/></g></g></svg>