<svg xmlns="http://www.w3.org/2000/svg" viewBox="0 0 150 150"><defs><style>.cls-1{fill:#c8c8ff;}.cls-2{fill:#333;}</style></defs><title>Asset 31</title><g id="Layer_2" data-name="Layer 2"><g id="Layer_1-2" data-name="Layer 1"><rect class="cls-1" width="150" height="150" rx="18.71"/><path class="cls-2" d="M41.2,53.89h2.43V68.23h8.48l-.32,2.06H41.2Z"/><path class="cls-2" d="M68.49,62c0,4.52-2.57,8.52-7.76,8.52-4.89,0-7.58-3.73-7.58-8.43s2.79-8.44,7.78-8.44C65.58,53.65,68.49,57.1,68.49,62Zm-12.8,0c0,3.48,1.73,6.45,5.14,6.45,3.68,0,5.12-3,5.12-6.43s-1.63-6.34-5.13-6.34S55.69,58.58,55.69,62Z"/><path class="cls-2" d="M85.32,70.29H83.48a8.67,8.67,0,0,1-.22-2.11c-.76,1.17-2.2,2.34-5,2.34-4.73,0-7.27-3.59-7.27-8.26,0-4.91,2.72-8.61,7.71-8.61,3.89,0,6.3,2.13,6.76,5H83a4.1,4.1,0,0,0-4.37-3c-3.73,0-5.13,3-5.13,6.5,0,3.27,1.44,6.35,5.06,6.35s4.39-2.38,4.39-4.9v-.17H78.52V61.37h6.8Z"/><path class="cls-2" d="M103.76,62c0,4.52-2.57,8.52-7.76,8.52-4.89,0-7.58-3.73-7.58-8.43s2.79-8.44,7.78-8.44C100.85,53.65,103.76,57.1,103.76,62ZM91,62c0,3.48,1.73,6.45,5.14,6.45,3.68,0,5.12-3,5.12-6.43s-1.63-6.34-5.13-6.34S91,58.58,91,62Z"/><path class="cls-2" d="M16.07,94c.43,1.9,1.74,2.9,4,2.9s3.41-1.11,3.41-2.6-.81-2.44-4-3.21c-4-1-5.28-2.34-5.28-4.62,0-2.52,1.86-4.5,5.57-4.5,4,0,5.62,2.28,5.84,4.48H23.17c-.27-1.38-1.12-2.55-3.46-2.55-1.89,0-3,.84-3,2.32s.88,2,3.71,2.73C25.16,90.09,26,91.9,26,94.05c0,2.71-2,4.78-6.08,4.78S14,96.61,13.6,94Z"/><path class="cls-2" d="M31.18,82.22v9.85c0,3.73,2,4.76,4.06,4.76,2.38,0,4-1.12,4-4.76V82.22h2.45v9.72c0,5.38-3,6.89-6.52,6.89s-6.47-1.62-6.47-6.75V82.22Z"/><path class="cls-2" d="M45.9,82.22h6.33c3.25,0,5.46,1.82,5.46,4.83,0,3.26-2.37,5-5.58,5H48.34v6.62H45.9ZM48.34,90h3.6c2.13,0,3.26-1,3.26-2.87S53.86,84.24,52,84.24H48.34Z"/><path class="cls-2" d="M60.68,82.22H67c3.24,0,5.46,1.82,5.46,4.83,0,3.26-2.37,5-5.58,5H63.12v6.62H60.68ZM63.12,90h3.59C68.84,90,70,89,70,87.11s-1.34-2.87-3.18-2.87H63.12Z"/><path class="cls-2" d="M75.46,82.22h2.43V96.56h8.48l-.32,2.06H75.46Z"/><path class="cls-2" d="M91.11,82.22v16.4H88.68V82.22Z"/><path class="cls-2" d="M106,91.06H97.86v5.5h8.89l-.3,2.06h-11V82.22h10.85v2.06H97.86V89H106Z"/><path class="cls-2" d="M112,91.52v7.1h-2.4V82.22h6.56c3.41,0,5.23,1.85,5.23,4.41a3.77,3.77,0,0,1-2.72,3.86c1.24.35,2.41,1.32,2.41,4.18v.72a11.64,11.64,0,0,0,.23,3.23H119a11.22,11.22,0,0,1-.29-3.56v-.33c0-2.23-.62-3.21-3.51-3.21Zm0-2h3.46c2.4,0,3.43-.9,3.43-2.65s-1.09-2.61-3.22-2.61H112Z"/><path class="cls-2" d="M126.3,94c.43,1.9,1.74,2.9,4,2.9s3.4-1.11,3.4-2.6-.8-2.44-4-3.21c-4-1-5.27-2.34-5.27-4.62,0-2.52,1.86-4.5,5.56-4.5,4,0,5.62,2.28,5.85,4.48H133.4c-.27-1.38-1.12-2.55-3.46-2.55-1.89,0-3,.84-3,2.32s.88,2,3.71,2.73c4.69,1.13,5.56,2.94,5.56,5.09,0,2.71-2,4.78-6.09,4.78s-6-2.22-6.33-4.82Z"/></g></g></svg>