<svg xmlns="http://www.w3.org/2000/svg" xmlns:xlink="http://www.w3.org/1999/xlink" viewBox="0 0 352.39 352.39"><defs><style>.cls-1{isolation:isolate;}.cls-2{mix-blend-mode:multiply;fill:url(#radial-gradient);}.cls-3{fill:#fff;}.cls-4{fill:#ff8421;}</style><radialGradient id="radial-gradient" cx="176.2" cy="176.2" r="176.2" gradientTransform="translate(176.2 -72.98) rotate(45)" gradientUnits="userSpaceOnUse"><stop offset="0.18" stop-color="#8d8d8d"/><stop offset="0.33" stop-color="#adadad"/><stop offset="0.52" stop-color="#d0d0d0"/><stop offset="0.71" stop-color="#eaeaea"/><stop offset="0.87" stop-color="#fafafa"/><stop offset="1" stop-color="#fff"/></radialGradient></defs><title>Asset 6</title><g class="cls-1"><g id="Layer_2" data-name="Layer 2"><g id="Layer_1-2" data-name="Layer 1"><circle class="cls-2" cx="176.2" cy="176.2" r="176.2" transform="translate(-72.98 176.2) rotate(-45)"/><circle class="cls-3" cx="176.7" cy="147.55" r="104.97" transform="translate(-52.58 168.16) rotate(-45)"/><circle class="cls-4" cx="176.7" cy="147.55" r="101.64" transform="translate(-52.58 168.16) rotate(-45)"/><path class="cls-3" d="M159.31,146.28V135.1H137.59v-7.87L158,98.9h9.7v28.86h5.86l-.86,7.34h-5v11.18Zm0-28.16c0-4.63,0-8.11.19-11.13-1.89,3.86-9.11,14.12-13.77,20.77h13.58Z"/><path class="cls-3" d="M179,132.73a12.61,12.61,0,0,1,8-11.61c-3.81-2.18-6.1-5.17-6.1-10,0-7.8,5.64-13.13,16-13.13,9.46,0,15.55,5.12,15.55,13,0,5.33-2.79,8.22-6.23,9.63a12.41,12.41,0,0,1,8,11.76c0,9.53-7.54,14.72-18,14.72C186.7,147.15,179,141.91,179,132.73Zm26.24-.4c0-5.14-3.44-7.65-8.61-7.65-5.77,0-8.59,3.19-8.59,7.6,0,4.59,3.35,7.8,8.72,7.8C201.7,140.08,205.24,137.6,205.24,132.33ZM189.52,111.4c0,3.48,2.39,6,7.29,6,4.71,0,7.09-2,7.09-6,0-3.78-2.45-6.43-7.18-6.43C191.81,105.06,189.52,107.44,189.52,111.4Z"/><path class="cls-3" d="M151.54,159.22H147V157h11.73v2.26h-4.49v12.26h-2.73Z"/><path class="cls-3" d="M159,163.62c0-1.22,0-2.14,0-2.93h2.56c0,.26.07,1.26.07,2a3.57,3.57,0,0,1,3.52-2.25V163c-2.18,0-3.52.77-3.52,3.65v4.88H159Z"/><path class="cls-3" d="M175.3,168.84a22.65,22.65,0,0,0,.14,2.64H173a4.45,4.45,0,0,1-.16-1.17c-.39.64-1.16,1.42-3.13,1.42-2.59,0-3.68-1.69-3.68-3.35,0-2.44,1.94-3.57,5.12-3.57h1.65v-.74c0-.83-.29-1.72-1.89-1.72-1.44,0-1.73.65-1.89,1.45h-2.49c.16-1.77,1.25-3.38,4.48-3.36,2.8,0,4.34,1.12,4.34,3.65Zm-2.55-2.39h-1.39c-1.92,0-2.75.57-2.75,1.77a1.56,1.56,0,0,0,1.73,1.61c2.14,0,2.41-1.47,2.41-3.07Z"/><path class="cls-3" d="M187.73,156.13v12.36c0,1,0,2,0,3h-2.51c-.05-.31-.1-1-.12-1.26a3.27,3.27,0,0,1-3.17,1.51c-2.75,0-4.47-2.21-4.47-5.55s1.84-5.74,4.87-5.74c1.67,0,2.51.62,2.77,1.15v-5.46Zm-7.57,10c0,2.27,1,3.5,2.51,3.5,2.21,0,2.55-1.76,2.55-3.59,0-2-.34-3.46-2.45-3.46C181.08,162.56,180.16,163.88,180.16,166.11Z"/><path class="cls-3" d="M192.5,166.62c0,1.64.83,3,2.43,3a2,2,0,0,0,2.13-1.33h2.61a4.6,4.6,0,0,1-4.81,3.4c-3.5,0-5-2.69-5-5.5,0-3.33,1.7-5.79,5.1-5.79,3.63,0,4.85,2.72,4.85,5.28a8.53,8.53,0,0,1,0,.9Zm4.7-1.66c0-1.43-.65-2.61-2.24-2.61s-2.25,1.1-2.39,2.61Z"/><path class="cls-3" d="M108.67,190.67v6H106V182.16h6.14c3.1,0,4.77,1.7,4.77,4a3.4,3.4,0,0,1-2.24,3.43c.88.29,2,1.08,2,3.65v.69a11.24,11.24,0,0,0,.2,2.8h-2.59a10,10,0,0,1-.29-3.21v-.25c0-1.75-.46-2.55-2.89-2.55Zm0-2.2h2.82c1.89,0,2.66-.71,2.66-2.07s-.86-2-2.54-2h-2.94Z"/><path class="cls-3" d="M121.26,191.82c0,1.64.83,3,2.43,3a2,2,0,0,0,2.13-1.33h2.61a4.61,4.61,0,0,1-4.81,3.4c-3.5,0-5-2.69-5-5.5,0-3.33,1.7-5.79,5.1-5.79,3.63,0,4.85,2.72,4.85,5.28a8.53,8.53,0,0,1,0,.9Zm4.7-1.65c0-1.44-.66-2.62-2.24-2.62s-2.25,1.1-2.4,2.62Z"/><path class="cls-3" d="M133.37,195.6v5.25h-2.6V188.5c0-.87,0-1.75,0-2.61h2.53a13.88,13.88,0,0,1,.09,1.46,3.51,3.51,0,0,1,3.27-1.71c2.45,0,4.3,2.05,4.3,5.37,0,3.83-2.09,5.92-4.7,5.92A3.08,3.08,0,0,1,133.37,195.6Zm4.91-4.49c0-2.08-.88-3.34-2.44-3.34-1.88,0-2.58,1.19-2.58,3.52s.61,3.54,2.44,3.54S138.28,193.47,138.28,191.11Z"/><path class="cls-3" d="M143.12,188.82c0-1.22,0-2.14,0-2.93h2.56c0,.26.07,1.26.07,2a3.57,3.57,0,0,1,3.52-2.25v2.52c-2.18,0-3.52.76-3.52,3.64v4.88h-2.61Z"/><path class="cls-3" d="M152.87,191.82c0,1.64.82,3,2.43,3a2,2,0,0,0,2.12-1.33H160a4.62,4.62,0,0,1-4.82,3.4c-3.5,0-5-2.69-5-5.5,0-3.33,1.7-5.79,5.11-5.79,3.63,0,4.85,2.72,4.85,5.28a6.41,6.41,0,0,1,0,.9Zm4.69-1.65c0-1.44-.65-2.62-2.24-2.62s-2.25,1.1-2.39,2.62Z"/><path class="cls-3" d="M164.19,193.49a2.05,2.05,0,0,0,2.24,1.52c1.27,0,1.74-.49,1.74-1.25s-.47-1.14-2.19-1.56c-3.37-.83-4-1.87-4-3.37s1.12-3.19,4.22-3.19,4.22,1.73,4.33,3.2h-2.49c-.12-.5-.47-1.32-2-1.32-1.16,0-1.53.53-1.53,1.09s.37.93,2.2,1.37c3.49.81,4.05,2,4.05,3.59,0,1.82-1.4,3.36-4.49,3.36s-4.48-1.52-4.73-3.44Z"/><path class="cls-3" d="M175,191.82c0,1.64.82,3,2.43,3a2,2,0,0,0,2.12-1.33h2.62a4.62,4.62,0,0,1-4.81,3.4c-3.51,0-5-2.69-5-5.5,0-3.33,1.69-5.79,5.1-5.79,3.63,0,4.85,2.72,4.85,5.28a6.41,6.41,0,0,1,0,.9Zm4.7-1.65c0-1.44-.66-2.62-2.25-2.62s-2.25,1.1-2.39,2.62Z"/><path class="cls-3" d="M184.48,188.61c0-.93,0-1.91,0-2.72H187a12.09,12.09,0,0,1,.1,1.51,3.33,3.33,0,0,1,3.22-1.76c2.12,0,3.59,1.39,3.59,4.15v6.89h-2.61v-6.59c0-1.35-.48-2.3-1.91-2.3s-2.29,1-2.29,3v5.91h-2.61Z"/><path class="cls-3" d="M195.38,185.89h1.73v-3h2.61v3h2.21v2h-2.21v5.66c0,.9.26,1.29,1.18,1.29a4.15,4.15,0,0,0,.76-.05v1.84a6.17,6.17,0,0,1-1.87.2c-2,0-2.68-1-2.68-2.9v-6h-1.73Z"/><path class="cls-3" d="M212.39,194a21.9,21.9,0,0,0,.15,2.64H210a5,5,0,0,1-.15-1.17c-.39.64-1.17,1.42-3.14,1.42-2.58,0-3.68-1.69-3.68-3.35,0-2.44,2-3.57,5.13-3.57h1.64v-.74c0-.83-.28-1.72-1.88-1.72s-1.73.65-1.89,1.46h-2.49c.15-1.78,1.25-3.39,4.47-3.37,2.81,0,4.34,1.12,4.34,3.65Zm-2.54-2.39h-1.4c-1.92,0-2.75.57-2.75,1.77a1.56,1.56,0,0,0,1.74,1.61c2.13,0,2.41-1.47,2.41-3.07Z"/><path class="cls-3" d="M213.93,185.89h1.73v-3h2.61v3h2.2v2h-2.2v5.66c0,.9.25,1.29,1.17,1.29a4.25,4.25,0,0,0,.77-.05v1.84a6.27,6.27,0,0,1-1.88.2c-2,0-2.67-1-2.67-2.9v-6h-1.73Z"/><path class="cls-3" d="M222.25,181.33h2.61v2.55h-2.61Zm0,4.56h2.61v10.79h-2.61Z"/><path class="cls-3" d="M229.35,185.89c1.17,3.91,2.09,7.14,2.34,8.46h0c.29-1.59,1.38-4.84,2.55-8.46h2.61L233,196.68h-2.78l-3.69-10.79Z"/><path class="cls-3" d="M240.29,191.82c0,1.64.82,3,2.43,3a2,2,0,0,0,2.12-1.33h2.62a4.62,4.62,0,0,1-4.81,3.4c-3.5,0-5-2.69-5-5.5,0-3.33,1.69-5.79,5.1-5.79,3.63,0,4.85,2.72,4.85,5.28a6.41,6.41,0,0,1,0,.9Zm4.7-1.65c0-1.44-.66-2.62-2.24-2.62s-2.26,1.1-2.4,2.62Z"/></g></g></g></svg>