<svg xmlns="http://www.w3.org/2000/svg" xmlns:xlink="http://www.w3.org/1999/xlink" viewBox="0 0 352.39 352.39"><defs><style>.cls-1{isolation:isolate;}.cls-2{mix-blend-mode:multiply;fill:url(#radial-gradient);}.cls-3{fill:#fff;}.cls-4{fill:#ff6206;}</style><radialGradient id="radial-gradient" cx="176.2" cy="176.2" r="176.2" gradientTransform="translate(176.2 -72.98) rotate(45)" gradientUnits="userSpaceOnUse"><stop offset="0.18" stop-color="#8d8d8d"/><stop offset="0.33" stop-color="#adadad"/><stop offset="0.52" stop-color="#d0d0d0"/><stop offset="0.71" stop-color="#eaeaea"/><stop offset="0.87" stop-color="#fafafa"/><stop offset="1" stop-color="#fff"/></radialGradient></defs><title>Asset 4</title><g class="cls-1"><g id="Layer_2" data-name="Layer 2"><g id="Layer_1-2" data-name="Layer 1"><circle class="cls-2" cx="176.2" cy="176.2" r="176.2" transform="translate(-72.98 176.2) rotate(-45)"/><circle class="cls-3" cx="176.7" cy="147.55" r="104.97" transform="translate(-8.02 284.92) rotate(-76.5)"/><circle class="cls-4" cx="176.7" cy="147.55" r="101.64" transform="translate(-8 284.94) rotate(-76.51)"/><path class="cls-3" d="M142,161.48V150.3H120.28v-7.87l20.38-28.33h9.7V143h5.85l-.86,7.34h-5v11.18Zm0-28.16c0-4.63,0-8.11.2-11.13-1.9,3.86-9.11,14.12-13.78,20.77H142Z"/><path class="cls-3" d="M162.86,126c.69-5.83,4.82-12.73,16.07-12.73,10.59,0,15.32,6.13,15.32,12.69,0,5.73-3.33,8.52-6,9.68v.2c3.47,1.21,7.92,4.34,7.92,11.6,0,7.09-4.33,14.94-17.32,14.94-12.07,0-16.49-7.38-17.05-13.67h8.74c.75,3.57,3.31,6.68,8.6,6.68,5.46,0,8-3.56,8-8.06,0-5-2.8-7.75-8.63-7.75h-4v-7H178c5.23,0,7.41-1.87,7.41-6.17,0-3.61-2.24-6-6.73-6-5.1,0-6.58,2.81-7.22,5.64Z"/><path class="cls-3" d="M233,114.1v6.81c-7.76,10.79-15.22,26.76-17.28,40.57h-9.21c2-13.78,10.44-31,17.3-39.91h-23V114.1Z"/><path class="cls-3" d="M109.07,181c0-2.55,0-5.32.1-6.92h-.1c-.66,2.75-2.42,8.07-3.9,12.62h-2.35c-1.13-3.88-2.95-9.9-3.59-12.65h-.09c.12,1.69.18,4.76.18,7.25v5.4h-2.5V172.16h4.05c1.31,4,2.83,9.16,3.29,11.22h0c.35-1.74,2.22-7.27,3.6-11.22h3.91v14.52h-2.63Z"/><path class="cls-3" d="M123.2,184a22.65,22.65,0,0,0,.14,2.64h-2.49a4.45,4.45,0,0,1-.16-1.17c-.39.64-1.16,1.42-3.14,1.42a3.31,3.31,0,0,1-3.67-3.35c0-2.44,1.94-3.57,5.12-3.57h1.64v-.74c0-.83-.28-1.72-1.88-1.72-1.44,0-1.73.65-1.89,1.45h-2.49c.16-1.77,1.25-3.38,4.48-3.36,2.8,0,4.34,1.12,4.34,3.65Zm-2.55-2.39h-1.39c-1.92,0-2.75.57-2.75,1.77a1.56,1.56,0,0,0,1.73,1.61c2.14,0,2.41-1.47,2.41-3.07Z"/><path class="cls-3" d="M126.08,178.82c0-1.22,0-2.14,0-2.93h2.56c0,.26.07,1.26.07,2a3.57,3.57,0,0,1,3.52-2.25v2.51c-2.18,0-3.52.77-3.52,3.65v4.88h-2.61Z"/><path class="cls-3" d="M136.61,180.64c.83-1.07,2.58-3,4.06-4.75h3L139.83,180l4.25,6.67h-3l-3-5-1.46,1.42v3.58H134V171.33h2.61Z"/><path class="cls-3" d="M147,181.82c0,1.64.82,3,2.43,3a2,2,0,0,0,2.12-1.33h2.62a4.62,4.62,0,0,1-4.81,3.4c-3.5,0-5-2.69-5-5.5,0-3.33,1.69-5.79,5.1-5.79,3.63,0,4.85,2.72,4.85,5.28a6.41,6.41,0,0,1,0,.9Zm4.7-1.66c0-1.43-.66-2.61-2.24-2.61s-2.26,1.1-2.4,2.61Z"/><path class="cls-3" d="M155.37,175.89h1.73v-3h2.61v3h2.2v2h-2.2v5.66c0,.9.25,1.29,1.17,1.29a4.25,4.25,0,0,0,.77-.05v1.84a6.24,6.24,0,0,1-1.88.2c-2,0-2.67-1-2.67-2.9v-6h-1.73Z"/><path class="cls-3" d="M172,180.67v6h-2.67V172.16h6.14c3.1,0,4.77,1.7,4.77,4a3.4,3.4,0,0,1-2.24,3.43c.88.28,2,1.08,2,3.65v.69a11.24,11.24,0,0,0,.2,2.8h-2.6a10.08,10.08,0,0,1-.28-3.21v-.25c0-1.75-.46-2.55-2.9-2.55Zm0-2.2h2.81c1.89,0,2.66-.71,2.66-2.07s-.85-2-2.53-2H172Z"/><path class="cls-3" d="M184.63,181.82c0,1.64.82,3,2.43,3a2,2,0,0,0,2.12-1.33h2.62a4.62,4.62,0,0,1-4.81,3.4c-3.5,0-5-2.69-5-5.5,0-3.33,1.69-5.79,5.1-5.79,3.63,0,4.85,2.72,4.85,5.28a6.41,6.41,0,0,1,0,.9Zm4.7-1.66c0-1.43-.66-2.61-2.24-2.61s-2.26,1.1-2.4,2.61Z"/><path class="cls-3" d="M196,183.49a2.05,2.05,0,0,0,2.24,1.52c1.27,0,1.75-.49,1.75-1.25s-.48-1.14-2.2-1.56c-3.37-.83-4-1.87-4-3.37s1.12-3.19,4.22-3.19,4.23,1.73,4.34,3.2h-2.5c-.11-.5-.47-1.32-2-1.32-1.16,0-1.52.53-1.52,1.09s.37.93,2.2,1.37c3.49.81,4,2,4,3.59,0,1.82-1.4,3.36-4.49,3.36s-4.47-1.52-4.72-3.44Z"/><path class="cls-3" d="M206.72,181.82c0,1.64.83,3,2.43,3a2,2,0,0,0,2.12-1.33h2.62a4.62,4.62,0,0,1-4.81,3.4c-3.5,0-5-2.69-5-5.5,0-3.33,1.7-5.79,5.1-5.79,3.63,0,4.85,2.72,4.85,5.28a6.41,6.41,0,0,1,0,.9Zm4.7-1.66c0-1.43-.66-2.61-2.24-2.61s-2.26,1.1-2.4,2.61Z"/><path class="cls-3" d="M224.83,184a22.05,22.05,0,0,0,.15,2.64h-2.49a4.45,4.45,0,0,1-.16-1.17c-.39.64-1.17,1.42-3.14,1.42a3.31,3.31,0,0,1-3.67-3.35c0-2.44,1.94-3.57,5.12-3.57h1.64v-.74c0-.83-.28-1.72-1.88-1.72-1.44,0-1.73.65-1.89,1.45H216c.16-1.77,1.25-3.38,4.47-3.36,2.81,0,4.34,1.12,4.34,3.65Zm-2.54-2.39h-1.4c-1.91,0-2.74.57-2.74,1.77a1.56,1.56,0,0,0,1.73,1.61c2.14,0,2.41-1.47,2.41-3.07Z"/><path class="cls-3" d="M227.72,178.82c0-1.22,0-2.14,0-2.93h2.56c0,.26.07,1.26.07,2a3.56,3.56,0,0,1,3.52-2.25v2.51c-2.18,0-3.52.77-3.52,3.65v4.88h-2.61Z"/><path class="cls-3" d="M244.58,183.26a4.42,4.42,0,0,1-4.72,3.67c-3.23,0-5-2.26-5-5.57,0-3.14,1.87-5.72,5.14-5.72,3.46,0,4.49,2.48,4.58,3.75H242a1.93,1.93,0,0,0-2.07-1.68c-1.55,0-2.43,1.35-2.43,3.56s.9,3.6,2.39,3.6a2.07,2.07,0,0,0,2.09-1.61Z"/><path class="cls-3" d="M249.15,171.33v5.94a3.49,3.49,0,0,1,3.18-1.63c1.92,0,3.62,1.11,3.62,4.13v6.91h-2.59v-6.51c0-1.55-.6-2.38-2-2.38-1.76,0-2.26,1.25-2.26,3.11v5.78h-2.61V171.33Z"/></g></g></g></svg>