<svg xmlns="http://www.w3.org/2000/svg" xmlns:xlink="http://www.w3.org/1999/xlink" viewBox="0 0 1967 876.86"><defs><style>.cls-1{fill:none;}.cls-2{clip-path:url(#clip-path);}.cls-3{clip-path:url(#clip-path-2);}.cls-4{fill:#fff;}</style><clipPath id="clip-path"><rect class="cls-1" x="29.5" y="71.5" width="1920" height="759"/></clipPath><clipPath id="clip-path-2"><polygon class="cls-1" points="958 830 1327 56 2255 46 2255 858 958 830"/></clipPath></defs><title>Asset 41</title><g id="Layer_2" data-name="Layer 2"><g id="Layer_1-2" data-name="Layer 1"><g class="cls-2"><image width="970" height="544" transform="scale(1.61)" xlink:href="C:%5CUsers%5CUser%5CDownloads%5C21013-ilustrasi-rempah-rempah.jpg"/><g class="cls-3"><image width="644" height="514" transform="translate(926 46) scale(1.62)" xlink:href="C:%5CUsers%5CUser%5CDownloads%5Cspices.jpg"/></g></g><path class="cls-4" d="M187.27,455.37h19.86c10.2,0,17.14,5.72,17.14,15,0,10.36-7.72,15.35-17.44,15.35H196.56v19.09h-9.29Zm9.29,22.85h9.28c5.57,0,9-2.39,9-7.67s-3.83-7.7-8.8-7.7h-9.51Z"/><path class="cls-4" d="M231,478c0-4.15,0-7.27-.07-10h8.71c.12.9.24,4.29.24,6.81,1.72-4.46,5.79-7.58,12-7.66v8.57c-7.43-.06-12,2.58-12,12.39v16.63H231Z"/><path class="cls-4" d="M290.77,486.35c0,10.93-6.45,19.29-17.95,19.29-11.1,0-17.65-8.13-17.65-19.12,0-11.17,6.65-19.32,18.11-19.32C283.89,467.2,290.77,474.83,290.77,486.35Zm-26.55.07c0,7.4,3.37,12.16,8.84,12.16s8.67-4.66,8.67-12.11c0-7.88-3.14-12.21-8.81-12.21C267.47,474.26,264.22,478.45,264.22,486.42Z"/><path class="cls-4" d="M331.28,452.52V494.6c0,3.38,0,6.76.07,10.19h-8.54a42.53,42.53,0,0,1-.42-4.3c-1.78,3.2-5.13,5.15-10.8,5.15-9.34,0-15.21-7.52-15.21-18.89S302.65,467.2,313,467.2c5.69,0,8.55,2.12,9.42,3.9V452.52Zm-25.76,34c0,7.73,3.27,11.92,8.52,11.92,7.53,0,8.7-6,8.7-12.22,0-6.91-1.17-11.8-8.36-11.8C308.66,474.41,305.52,478.91,305.52,486.51Z"/><path class="cls-4" d="M372.25,494.1c0,3.55,0,7.77.07,10.69h-8.69c-.14-1-.22-3-.27-4.67-2.05,3.82-5.39,5.52-10.45,5.52-7.05,0-12.22-4.05-12.22-13.58v-24h8.86v22.2c0,4.31,1.35,8,6.32,8,5.34,0,7.49-2.89,7.49-10.81V468.05h8.89Z"/><path class="cls-4" d="M413,493.13c-1.37,6.19-5.66,12.51-16.07,12.51-11,0-17-7.69-17-19,0-10.69,6.36-19.46,17.47-19.46,11.78,0,15.3,8.43,15.59,12.78h-8.71c-.72-3.24-2.63-5.72-7.05-5.72-5.27,0-8.26,4.58-8.26,12.11,0,8,3.05,12.26,8.15,12.26,3.87,0,6-2.2,7.11-5.5Z"/><path class="cls-4" d="M416.43,468.05h5.9V457.81h8.88v10.24h7.5v6.82h-7.5v19.27c0,3.05.86,4.38,4,4.38a15.41,15.41,0,0,0,2.61-.18v6.25a21.06,21.06,0,0,1-6.38.7c-6.68,0-9.1-3.54-9.1-9.86V474.87h-5.9Z"/><path class="cls-4" d="M464.08,455.37H483c14.22,0,23.62,9.47,23.62,24.13,0,14.48-9.14,25.29-24,25.29H464.08Zm9.27,41.83h8.82c10.21,0,14.86-7.48,14.86-17.64,0-8.65-4.31-16.61-14.81-16.61h-8.87Z"/><path class="cls-4" d="M515.21,452.52h8.88v8.69h-8.88Zm0,15.53h8.88v36.74h-8.88Z"/><path class="cls-4" d="M539.36,468.05c4,13.31,7.13,24.31,8,28.78h.07c1-5.4,4.69-16.44,8.66-28.78H565l-13.16,36.74h-9.44l-12.57-36.74Z"/><path class="cls-4" d="M576.59,488.25c0,5.56,2.81,10.33,8.27,10.33,4.76,0,6.2-2.14,7.23-4.52H601c-1.35,4.57-5.34,11.58-16.38,11.58-11.92,0-17-9.16-17-18.73,0-11.32,5.77-19.71,17.36-19.71,12.35,0,16.5,9.25,16.5,18a25,25,0,0,1-.12,3.08Zm16-5.65c-.07-4.87-2.23-8.89-7.63-8.89s-7.66,3.74-8.15,8.89Z"/><path class="cls-4" d="M609,478c0-4.15,0-7.27-.08-10h8.72c.12.9.24,4.29.24,6.81,1.72-4.46,5.79-7.58,12-7.66v8.57c-7.43-.06-12,2.58-12,12.39v16.63H609Z"/><path class="cls-4" d="M642.19,493.92c.86,3.29,3.45,5.18,7.64,5.18s5.93-1.68,5.93-4.28-1.62-3.87-7.46-5.3c-11.48-2.81-13.51-6.35-13.51-11.47,0-5.33,3.81-10.85,14.34-10.85s14.39,5.88,14.76,10.9h-8.48c-.39-1.7-1.6-4.51-6.67-4.51-4,0-5.2,1.82-5.2,3.73,0,2.13,1.27,3.17,7.49,4.64,11.88,2.78,13.78,6.82,13.78,12.23,0,6.2-4.79,11.45-15.3,11.45s-15.22-5.19-16.07-11.72Z"/><path class="cls-4" d="M672,452.52h8.88v8.69H672Zm0,15.53h8.88v36.74H672Z"/><path class="cls-4" d="M692.41,504.79V474.87h-5.55v-6.82h5.55v-3.62c0-7.3,3.36-12.62,11.37-12.62a19.1,19.1,0,0,1,4.5.45v7.13a14.26,14.26,0,0,0-2.5-.22c-3.27,0-4.49,1.49-4.49,5.91v3H708v6.82h-6.74v29.92Z"/><path class="cls-4" d="M713.56,452.52h8.89v8.69h-8.89Zm0,15.53h8.89v36.74h-8.89Z"/><path class="cls-4" d="M763,493.13c-1.37,6.19-5.66,12.51-16.07,12.51-11,0-17-7.69-17-19,0-10.69,6.37-19.46,17.48-19.46,11.78,0,15.29,8.43,15.59,12.78h-8.71c-.72-3.24-2.63-5.72-7-5.72-5.27,0-8.26,4.58-8.26,12.11,0,8,3,12.26,8.15,12.26,3.86,0,6-2.2,7.11-5.5Z"/><path class="cls-4" d="M799.29,495.79a72.43,72.43,0,0,0,.5,9H791.3a16.81,16.81,0,0,1-.55-4c-1.31,2.19-4,4.85-10.66,4.85-8.79,0-12.52-5.76-12.52-11.42,0-8.31,6.63-12.13,17.45-12.13h5.58v-2.54c0-2.83-1-5.86-6.41-5.86-4.91,0-5.88,2.23-6.42,5h-8.48c.53-6,4.26-11.5,15.22-11.45,9.55.05,14.78,3.83,14.78,12.44Zm-8.67-8.12h-4.74c-6.53,0-9.36,1.92-9.36,6,0,3.05,2,5.47,5.91,5.47,7.27,0,8.19-5,8.19-10.45Z"/><path class="cls-4" d="M804.5,468.05h5.89V457.81h8.88v10.24h7.51v6.82h-7.51v19.27c0,3.05.86,4.38,4,4.38a15.41,15.41,0,0,0,2.61-.18v6.25a21.06,21.06,0,0,1-6.38.7c-6.68,0-9.1-3.54-9.1-9.86V474.87H804.5Z"/><path class="cls-4" d="M832.82,452.52h8.88v8.69h-8.88Zm0,15.53h8.88v36.74h-8.88Z"/><path class="cls-4" d="M884.7,486.35c0,10.93-6.46,19.29-18,19.29-11.1,0-17.65-8.13-17.65-19.12,0-11.17,6.65-19.32,18.11-19.32C877.81,467.2,884.7,474.83,884.7,486.35Zm-26.56.07c0,7.4,3.37,12.16,8.84,12.16s8.67-4.66,8.67-12.11c0-7.88-3.14-12.21-8.81-12.21C861.4,474.26,858.14,478.45,858.14,486.42Z"/><path class="cls-4" d="M892.18,477.31c0-3.15,0-6.5-.07-9.26h8.61c.19,1,.31,4,.34,5.14,1.32-2.59,4.3-6,11-6,7.21,0,12.21,4.72,12.21,14.13v23.46h-8.89V482.35c0-4.6-1.64-7.84-6.5-7.84-5.2,0-7.78,3.36-7.78,10.15v20.13h-8.88Z"/></g></g></svg>