<svg xmlns="http://www.w3.org/2000/svg" viewBox="0 0 157.3 19.49"><defs><style>.cls-1{fill:#1d7bff;}</style></defs><title>Asset 2</title><g id="Layer_2" data-name="Layer 2"><g id="Layer_1-2" data-name="Layer 1"><path class="cls-1" d="M27.64,14.53l-1.13,3.34H23.44L28.35,3.4h3.93l5.13,14.47H34.12l-1.19-3.34ZM32.26,12c-1-3.05-1.69-5-2-6.31h0c-.35,1.43-1.08,3.7-1.9,6.31Z" transform="translate(-23.44 -2.54)"/><path class="cls-1" d="M39,2.54h3V8.16a3.41,3.41,0,0,1,3.11-1.41c3,0,4.44,2.44,4.44,5.49s-1.6,5.88-4.73,5.88A2.94,2.94,0,0,1,42,16.84a5.11,5.11,0,0,1-.12,1H39c0-1.18,0-2.37,0-3.55Zm7.5,9.76c0-1.81-.67-3.14-2.3-3.14s-2.32,1.12-2.32,3.34c0,1.83.54,3.23,2.29,3.23C45.7,15.73,46.5,14.36,46.5,12.3Z" transform="translate(-23.44 -2.54)"/><path class="cls-1" d="M61.86,12.42c0,3.28-2,5.7-5.41,5.7s-5.34-2.4-5.34-5.65,2-5.72,5.48-5.72C59.79,6.75,61.86,9,61.86,12.42Zm-7.69,0c0,2.09.9,3.33,2.35,3.33s2.29-1.24,2.29-3.31c0-2.28-.84-3.35-2.33-3.35S54.17,10.14,54.17,12.44Z" transform="translate(-23.44 -2.54)"/><path class="cls-1" d="M73.5,14.71c0,1,0,2.19,0,3.16h-3c0-.29-.06-.87-.08-1.25a3.09,3.09,0,0,1-3,1.5c-2.21,0-3.63-1.34-3.63-4V7h3v6.48c0,1.2.37,2.19,1.67,2.19s1.94-.73,1.94-2.88V7h3Z" transform="translate(-23.44 -2.54)"/><path class="cls-1" d="M75.33,7H77V4.06h3V7h2.13V9.27H80v5.36c0,.82.25,1.14,1.15,1.14a5.55,5.55,0,0,0,.68,0v2.07a6.88,6.88,0,0,1-2,.21C77.7,18,77,16.88,77,15V9.27H75.33Z" transform="translate(-23.44 -2.54)"/><path class="cls-1" d="M92.59,3.4V17.87H89.46V3.4Z" transform="translate(-23.44 -2.54)"/><path class="cls-1" d="M95.36,9.74c0-.92,0-1.93,0-2.74h2.92a11.7,11.7,0,0,1,.11,1.39,3.33,3.33,0,0,1,3.16-1.64c2.18,0,3.6,1.48,3.6,4.21v6.91h-3V11.29c0-1.22-.41-2.1-1.74-2.1s-2,.71-2,2.62v6.06h-3Z" transform="translate(-23.44 -2.54)"/><path class="cls-1" d="M116.69,15.06a25.6,25.6,0,0,0,.14,2.81H114a3.93,3.93,0,0,1-.15-1.06c-.4.61-1.14,1.31-3.06,1.31A3.35,3.35,0,0,1,107,14.71c0-2.47,2-3.61,5.17-3.61h1.55v-.67c0-.77-.28-1.53-1.67-1.53s-1.55.54-1.69,1.33h-2.86c.16-1.93,1.36-3.5,4.66-3.48,2.91,0,4.5,1.16,4.5,3.74Zm-2.94-2.14h-1.22c-1.82,0-2.49.56-2.49,1.6A1.39,1.39,0,0,0,111.61,16c1.91,0,2.14-1.32,2.14-2.76Z" transform="translate(-23.44 -2.54)"/><path class="cls-1" d="M121.74,13.08c0,1.36.68,2.69,2.18,2.69a1.71,1.71,0,0,0,1.9-1.16h3a4.75,4.75,0,0,1-5,3.51c-3.58,0-5.13-2.67-5.13-5.52,0-3.41,1.75-5.85,5.24-5.85,3.73,0,5,2.7,5,5.41a6.63,6.63,0,0,1,0,.92Zm4.2-1.85c0-1.26-.53-2.33-2-2.33s-2,1-2.15,2.33Z" transform="translate(-23.44 -2.54)"/><path class="cls-1" d="M132.94,7c1.13,2.05,1.59,2.85,1.92,3.41h0c.38-.66,1-1.86,1.92-3.41h3.34l-3.52,5.18,3.51,5.69h-3.4c-1-1.84-1.59-3-1.91-3.65h0c-.29.57-1,2-1.92,3.65h-3.29L133,12.58,129.61,7Z" transform="translate(-23.44 -2.54)"/><path class="cls-1" d="M144.41,16.91V22h-3V9.62c0-.88,0-1.74,0-2.62h2.91a12.89,12.89,0,0,1,.1,1.36,3.44,3.44,0,0,1,3.16-1.61c2.44,0,4.33,2,4.33,5.41,0,3.84-2.11,6-4.74,6A3,3,0,0,1,144.41,16.91Zm4.43-4.63c0-2-.8-3.12-2.23-3.12-1.71,0-2.32,1.1-2.32,3.29s.56,3.28,2.19,3.28S148.84,14.49,148.84,12.28Z" transform="translate(-23.44 -2.54)"/><path class="cls-1" d="M164.21,12.42c0,3.28-2,5.7-5.41,5.7s-5.33-2.4-5.33-5.65,2-5.72,5.48-5.72C162.14,6.75,164.21,9,164.21,12.42Zm-7.69,0c0,2.09.9,3.33,2.35,3.33s2.29-1.24,2.29-3.31c0-2.28-.83-3.35-2.33-3.35S156.52,10.14,156.52,12.44Z" transform="translate(-23.44 -2.54)"/><path class="cls-1" d="M166.28,10c0-1.08,0-2,0-2.95h3c0,.25.08,1.33.08,1.91a3.49,3.49,0,0,1,3.49-2.16V9.62c-2.19,0-3.49.53-3.49,3.51v4.74h-3Z" transform="translate(-23.44 -2.54)"/><path class="cls-1" d="M173.92,7h1.67V4.06h3V7h2.13V9.27H178.6v5.36c0,.82.26,1.14,1.15,1.14a5.79,5.79,0,0,0,.69,0v2.07a7,7,0,0,1-2,.21c-2.12,0-2.82-1.14-2.82-3V9.27h-1.67Z" transform="translate(-23.44 -2.54)"/></g></g></svg>