<svg xmlns="http://www.w3.org/2000/svg" xmlns:xlink="http://www.w3.org/1999/xlink" viewBox="0 0 1923 1282"><defs><style>.cls-1{fill:none;}.cls-2{clip-path:url(#clip-path);}.cls-3{fill:#fff;}</style><clipPath id="clip-path"><rect class="cls-1" x="2.5" y="261.5" width="1920" height="759"/></clipPath></defs><title>Asset 24</title><g id="Layer_2" data-name="Layer 2"><g id="Layer_1-2" data-name="Layer 1"><g class="cls-2"><image width="750" height="500" transform="scale(2.56)" xlink:href="C:%5CUsers%5CUser%5CDownloads%5C5df48db39f97c.jpg"/></g><path class="cls-3" d="M130.27,602.37h19.86c10.2,0,17.14,5.72,17.14,15,0,10.36-7.72,15.35-17.44,15.35H139.56v19.09h-9.29Zm9.29,22.85h9.28c5.57,0,9-2.39,9-7.67s-3.83-7.7-8.8-7.7h-9.51Z"/><path class="cls-3" d="M174,625c0-4.15,0-7.27-.07-10h8.71c.12.9.24,4.29.24,6.81,1.72-4.46,5.79-7.58,12-7.66v8.57c-7.43-.06-12,2.58-12,12.39v16.63H174Z"/><path class="cls-3" d="M233.77,633.35c0,10.93-6.45,19.29-18,19.29-11.1,0-17.65-8.13-17.65-19.12,0-11.17,6.65-19.32,18.11-19.32C226.89,614.2,233.77,621.83,233.77,633.35Zm-26.55.07c0,7.4,3.37,12.16,8.84,12.16s8.67-4.66,8.67-12.11c0-7.88-3.14-12.21-8.81-12.21C210.47,621.26,207.22,625.45,207.22,633.42Z"/><path class="cls-3" d="M274.28,599.52V641.6c0,3.38,0,6.76.07,10.19h-8.54a42.53,42.53,0,0,1-.42-4.3c-1.78,3.2-5.13,5.15-10.8,5.15-9.34,0-15.21-7.52-15.21-18.89S245.65,614.2,256,614.2c5.69,0,8.55,2.12,9.42,3.9V599.52Zm-25.76,34c0,7.73,3.27,11.92,8.52,11.92,7.53,0,8.7-6,8.7-12.22,0-6.91-1.17-11.8-8.36-11.8C251.66,621.41,248.52,625.91,248.52,633.51Z"/><path class="cls-3" d="M315.25,641.1c0,3.55,0,7.77.07,10.69h-8.69c-.14-1-.22-3-.27-4.67-2.05,3.82-5.39,5.52-10.45,5.52-7.05,0-12.22-4-12.22-13.58v-24h8.86v22.2c0,4.31,1.35,8,6.32,8,5.34,0,7.49-2.89,7.49-10.81V615.05h8.89Z"/><path class="cls-3" d="M356,640.13c-1.37,6.19-5.66,12.51-16.07,12.51-11,0-17-7.69-17-19,0-10.69,6.36-19.46,17.47-19.46,11.78,0,15.3,8.43,15.59,12.78h-8.71c-.72-3.24-2.63-5.72-7.05-5.72-5.27,0-8.26,4.58-8.26,12.11,0,8,3.05,12.26,8.15,12.26,3.87,0,6-2.2,7.11-5.5Z"/><path class="cls-3" d="M359.43,615.05h5.9V604.81h8.88v10.24h7.5v6.82h-7.5v19.27c0,3.05.86,4.38,4,4.38a15.41,15.41,0,0,0,2.61-.18v6.25a21.06,21.06,0,0,1-6.38.7c-6.68,0-9.1-3.54-9.1-9.86V621.87h-5.9Z"/><path class="cls-3" d="M407.08,602.37H426c14.22,0,23.62,9.47,23.62,24.13,0,14.48-9.14,25.29-24,25.29H407.08Zm9.27,41.83h8.82c10.21,0,14.86-7.48,14.86-17.64,0-8.65-4.31-16.61-14.81-16.61h-8.87Z"/><path class="cls-3" d="M458.21,599.52h8.88v8.69h-8.88Zm0,15.53h8.88v36.74h-8.88Z"/><path class="cls-3" d="M482.36,615.05c4,13.31,7.13,24.31,8,28.78h.07c1-5.4,4.69-16.44,8.66-28.78H508l-13.16,36.74h-9.44l-12.57-36.74Z"/><path class="cls-3" d="M519.59,635.25c0,5.56,2.81,10.33,8.27,10.33,4.76,0,6.2-2.14,7.23-4.52H544c-1.35,4.57-5.34,11.58-16.38,11.58-11.92,0-17-9.16-17-18.73,0-11.32,5.77-19.71,17.36-19.71,12.35,0,16.5,9.25,16.5,18a25,25,0,0,1-.12,3.08Zm16-5.65c-.07-4.87-2.23-8.89-7.63-8.89s-7.66,3.74-8.15,8.89Z"/><path class="cls-3" d="M552,625c0-4.15,0-7.27-.08-10h8.72c.12.9.24,4.29.24,6.81,1.72-4.46,5.79-7.58,12-7.66v8.57c-7.43-.06-12,2.58-12,12.39v16.63H552Z"/><path class="cls-3" d="M585.19,640.92c.86,3.29,3.45,5.18,7.64,5.18s5.93-1.68,5.93-4.28-1.62-3.87-7.46-5.3c-11.48-2.81-13.51-6.35-13.51-11.47,0-5.33,3.81-10.85,14.34-10.85s14.39,5.88,14.76,10.9h-8.48c-.39-1.7-1.6-4.51-6.67-4.51-4,0-5.2,1.82-5.2,3.73,0,2.13,1.27,3.17,7.49,4.64,11.88,2.78,13.78,6.82,13.78,12.23,0,6.2-4.79,11.45-15.3,11.45s-15.22-5.19-16.07-11.72Z"/><path class="cls-3" d="M615,599.52h8.88v8.69H615Zm0,15.53h8.88v36.74H615Z"/><path class="cls-3" d="M635.41,651.79V621.87h-5.55v-6.82h5.55v-3.62c0-7.3,3.36-12.62,11.37-12.62a19.1,19.1,0,0,1,4.5.45v7.13a14.26,14.26,0,0,0-2.5-.22c-3.27,0-4.49,1.49-4.49,5.91v3H651v6.82h-6.74v29.92Z"/><path class="cls-3" d="M656.56,599.52h8.89v8.69h-8.89Zm0,15.53h8.89v36.74h-8.89Z"/><path class="cls-3" d="M706,640.13c-1.37,6.19-5.66,12.51-16.07,12.51-11,0-17-7.69-17-19,0-10.69,6.37-19.46,17.48-19.46,11.78,0,15.29,8.43,15.59,12.78h-8.71c-.72-3.24-2.63-5.72-7-5.72-5.27,0-8.26,4.58-8.26,12.11,0,8,3,12.26,8.15,12.26,3.86,0,6-2.2,7.11-5.5Z"/><path class="cls-3" d="M742.29,642.79a72.43,72.43,0,0,0,.5,9H734.3a16.81,16.81,0,0,1-.55-4c-1.31,2.19-4,4.85-10.66,4.85-8.79,0-12.52-5.76-12.52-11.42,0-8.31,6.63-12.13,17.45-12.13h5.58v-2.54c0-2.83-1-5.86-6.41-5.86-4.91,0-5.88,2.23-6.42,5h-8.48c.53-6,4.26-11.5,15.22-11.45,9.55,0,14.78,3.83,14.78,12.44Zm-8.66-8.12h-4.75c-6.53,0-9.36,1.92-9.36,6,0,3.05,2,5.47,5.91,5.47,7.27,0,8.2-5,8.2-10.45Z"/><path class="cls-3" d="M747.5,615.05h5.89V604.81h8.88v10.24h7.51v6.82h-7.51v19.27c0,3.05.86,4.38,4,4.38a15.41,15.41,0,0,0,2.61-.18v6.25a21.06,21.06,0,0,1-6.38.7c-6.68,0-9.1-3.54-9.1-9.86V621.87H747.5Z"/><path class="cls-3" d="M775.82,599.52h8.88v8.69h-8.88Zm0,15.53h8.88v36.74h-8.88Z"/><path class="cls-3" d="M827.7,633.35c0,10.93-6.46,19.29-18,19.29-11.1,0-17.65-8.13-17.65-19.12,0-11.17,6.65-19.32,18.11-19.32C820.81,614.2,827.7,621.83,827.7,633.35Zm-26.56.07c0,7.4,3.37,12.16,8.84,12.16s8.67-4.66,8.67-12.11c0-7.88-3.14-12.21-8.81-12.21C804.4,621.26,801.14,625.45,801.14,633.42Z"/><path class="cls-3" d="M835.18,624.31c0-3.15,0-6.5-.07-9.26h8.61c.19,1,.31,4,.34,5.14,1.32-2.59,4.3-6,11-6,7.21,0,12.21,4.72,12.21,14.13v23.46h-8.89V629.35c0-4.6-1.64-7.84-6.5-7.84-5.2,0-7.78,3.36-7.78,10.15v20.13h-8.88Z"/></g></g></svg>