<svg xmlns="http://www.w3.org/2000/svg" xmlns:xlink="http://www.w3.org/1999/xlink" viewBox="0 0 352.39 352.39"><defs><style>.cls-1{isolation:isolate;}.cls-2{mix-blend-mode:multiply;fill:url(#radial-gradient);}.cls-3{fill:#fff;}.cls-4{fill:#002e80;}</style><radialGradient id="radial-gradient" cx="176.2" cy="176.2" r="176.2" gradientTransform="translate(176.2 -72.98) rotate(45)" gradientUnits="userSpaceOnUse"><stop offset="0.18" stop-color="#8d8d8d"/><stop offset="0.33" stop-color="#adadad"/><stop offset="0.52" stop-color="#d0d0d0"/><stop offset="0.71" stop-color="#eaeaea"/><stop offset="0.87" stop-color="#fafafa"/><stop offset="1" stop-color="#fff"/></radialGradient></defs><title>Asset 7</title><g class="cls-1"><g id="Layer_2" data-name="Layer 2"><g id="Layer_1-2" data-name="Layer 1"><circle class="cls-2" cx="176.2" cy="176.2" r="176.2" transform="translate(-72.98 176.2) rotate(-45)"/><circle class="cls-3" cx="176.7" cy="147.55" r="104.97" transform="translate(-52.58 168.16) rotate(-45)"/><circle class="cls-4" cx="176.7" cy="147.55" r="101.64" transform="translate(-10.85 281.02) rotate(-75.3)"/><path class="cls-3" d="M110.52,168.88V157.7H88.8v-7.87l20.38-28.33h9.7v28.86h5.86l-.86,7.34h-5v11.18Zm0-28.16c0-4.63,0-8.11.19-11.13-1.89,3.86-9.11,14.12-13.77,20.77h13.58Z"/><path class="cls-3" d="M126.7,177.19A57.42,57.42,0,0,0,132,156.94h9.15c-.71,6.88-3.06,14.67-7.37,20.25Z"/><path class="cls-3" d="M170.93,132.62c-.7-2.71-2.35-5.06-6.72-5.06-6.9,0-8.88,6.47-9.15,14.08,2-2.74,5.4-5.13,11.18-5.13,8.85,0,14.73,6.48,14.73,15.74,0,9.84-6.14,17.5-16.92,17.5-13.51,0-17.83-10.59-17.83-24,0-12.58,4.33-25.15,18.39-25.15,10.07,0,14.51,6.39,15,12ZM172,153c0-4.77-1.8-9.37-8-9.37-5,0-8.23,3.05-8.23,9.11,0,3.86,1.89,9.81,8.17,9.81C169.51,162.52,172,158.15,172,153Z"/><path class="cls-3" d="M222.87,144.88c0,12.59-3.86,24.87-17.65,24.87-13.57,0-17.63-11.73-17.63-24.56s4.47-24.55,17.85-24.55C218.48,120.64,222.87,131.88,222.87,144.88Zm-26,.23c0,8.82,1.19,17.39,8.45,17.39s8.24-8.07,8.24-17.57c0-9.17-1.26-17.05-8.1-17.05S196.87,134.8,196.87,145.11Z"/><path class="cls-3" d="M229.49,168.88v-.57c0-7.77,4-14.61,14.07-22.05,7-5.2,9-6.94,9-11.46,0-4.32-2.17-7.07-6.74-7.07-5,0-7,2.89-7.81,7.58h-8.67c.74-8.12,6-14.67,16.48-14.67,11.65,0,15.8,7.11,15.8,14s-3,10.14-11.73,16.49c-6.08,4.42-8.81,7.5-9.74,10.13h23.26l-1.15,7.57Z"/><path class="cls-3" d="M134.41,179.56h5.84c3,0,5,1.68,5,4.4,0,3-2.26,4.51-5.12,4.51h-3v5.61h-2.73Zm2.73,6.71h2.73c1.63,0,2.65-.69,2.65-2.25s-1.13-2.26-2.58-2.26h-2.8Z"/><path class="cls-3" d="M147.25,186.22c0-1.22,0-2.14,0-2.93h2.56c0,.26.07,1.26.07,2a3.58,3.58,0,0,1,3.52-2.25v2.51c-2.18,0-3.52.77-3.52,3.65v4.88h-2.61Z"/><path class="cls-3" d="M164.83,188.67c0,3.21-1.9,5.66-5.28,5.66s-5.18-2.39-5.18-5.62,1.95-5.67,5.32-5.67C162.8,183,164.83,185.28,164.83,188.67Zm-7.81,0c0,2.18,1,3.58,2.6,3.58s2.55-1.37,2.55-3.56-.92-3.59-2.59-3.59S157,186.34,157,188.68Z"/><path class="cls-3" d="M176.73,178.73v12.36c0,1,0,2,0,3h-2.51c-.05-.31-.1-1-.12-1.26a3.27,3.27,0,0,1-3.17,1.51c-2.75,0-4.47-2.21-4.47-5.55s1.84-5.74,4.87-5.74c1.68,0,2.52.62,2.77,1.14v-5.45Zm-7.57,10c0,2.27,1,3.5,2.51,3.5,2.21,0,2.55-1.76,2.55-3.59,0-2-.34-3.46-2.45-3.46C170.09,185.16,169.16,186.48,169.16,188.71Z"/><path class="cls-3" d="M188.77,190.94c0,1.05,0,2.29,0,3.14h-2.55c0-.29-.06-.89-.08-1.37a3.11,3.11,0,0,1-3.07,1.62c-2.07,0-3.59-1.19-3.59-4v-7.05h2.6v6.52c0,1.27.4,2.36,1.86,2.36s2.2-.85,2.2-3.17v-5.71h2.61Z"/><path class="cls-3" d="M200.75,190.66a4.41,4.41,0,0,1-4.72,3.67c-3.22,0-5-2.26-5-5.57,0-3.14,1.87-5.72,5.13-5.72,3.47,0,4.5,2.48,4.58,3.75H198.2a1.93,1.93,0,0,0-2.08-1.68c-1.54,0-2.42,1.35-2.42,3.56s.89,3.6,2.39,3.6a2.07,2.07,0,0,0,2.09-1.61Z"/><path class="cls-3" d="M201.76,183.29h1.73v-3h2.61v3h2.21v2H206.1V191c0,.9.25,1.29,1.17,1.29a4.25,4.25,0,0,0,.77-.05V194a5.91,5.91,0,0,1-1.87.21c-2,0-2.68-1-2.68-2.9v-6h-1.73Z"/><path class="cls-3" d="M212,190.89a2.05,2.05,0,0,0,2.24,1.52c1.27,0,1.74-.49,1.74-1.25s-.47-1.14-2.19-1.56c-3.37-.83-4-1.87-4-3.37S210.94,183,214,183s4.22,1.73,4.33,3.2h-2.49c-.11-.5-.47-1.32-2-1.32-1.16,0-1.53.53-1.53,1.09s.38.93,2.2,1.36c3.49.82,4,2,4,3.6,0,1.82-1.4,3.36-4.49,3.36s-4.47-1.52-4.72-3.44Z"/></g></g></g></svg>