<svg xmlns="http://www.w3.org/2000/svg" viewBox="0 0 86.05 17.37"><defs><style>.cls-1{fill:#1d7bff;}</style></defs><title>Asset 34</title><g id="Layer_2" data-name="Layer 2"><g id="Layer_1-2" data-name="Layer 1"><path class="cls-1" d="M132.57,3.4V17.87h-3.13V3.4Z" transform="translate(-129.44 -3.19)"/><path class="cls-1" d="M136,17.87V3.4h3.87c1.81,3.25,5.15,9.11,5.82,10.68h0c-.16-1.51-.16-4-.16-6.39V3.4h2.84V17.87h-3.68c-1.56-2.83-5.26-9.56-6-11.23h0c.11,1.26.14,4.24.14,6.83v4.4Z" transform="translate(-129.44 -3.19)"/><path class="cls-1" d="M165.21,10.58c0,4-2.41,7.5-7.12,7.5-4.54,0-6.92-3.3-6.92-7.45s2.63-7.44,7.13-7.44C162.53,3.19,165.21,6.15,165.21,10.58Zm-10.8,0c0,2.83,1.24,5,3.8,5,2.79,0,3.77-2.33,3.77-4.91,0-2.74-1.12-4.89-3.82-4.89S154.41,7.75,154.41,10.57Zm7.76,5.08,4.11,2.83-1.81,2.08L159.37,17Z" transform="translate(-129.44 -3.19)"/><path class="cls-1" d="M170.94,3.4V12c0,2.78,1.43,3.6,3,3.6,1.79,0,2.91-1,2.91-3.6V3.4H180v8.47c0,4.94-2.89,6.21-6.09,6.21s-6.08-1.32-6.08-6.16V3.4Z" transform="translate(-129.44 -3.19)"/><path class="cls-1" d="M186.41,3.4V17.87h-3.13V3.4Z" transform="translate(-129.44 -3.19)"/><path class="cls-1" d="M192.94,12.08v5.79h-3.06V3.4h6.36c3.15,0,4.85,1.73,4.85,4a3.45,3.45,0,0,1-2.1,3.42c.72.27,1.8,1,1.8,3.61v.71a11.51,11.51,0,0,0,.21,2.76h-3a10.3,10.3,0,0,1-.3-3.25v-.21c0-1.58-.4-2.33-2.73-2.33Zm0-2.49h2.62c1.71,0,2.38-.66,2.38-1.87s-.77-1.83-2.31-1.83h-2.69Z" transform="translate(-129.44 -3.19)"/><path class="cls-1" d="M207.19,17.87V12.76a.81.81,0,0,0-.12-.47l-5-8.89h3.54c1.12,2.18,2.57,5.08,3.29,6.66.63-1.52,2.22-4.57,3.31-6.66h3.28l-5.06,8.85a.66.66,0,0,0-.12.46v5.16Z" transform="translate(-129.44 -3.19)"/></g></g></svg>