<svg xmlns="http://www.w3.org/2000/svg" viewBox="0 0 204 56"><defs><style>.cls-1{fill:#ffe300;}.cls-2{fill:#1d7bff;}</style></defs><title>Asset 27</title><g id="Layer_2" data-name="Layer 2"><g id="Layer_1-2" data-name="Layer 1"><rect class="cls-1" width="204" height="56" rx="28"/><path class="cls-2" d="M46.2,31.69c.33,1.45,1.37,2.09,3,2.09s2.38-.66,2.38-1.72-.69-1.69-3.17-2.26c-3.94-.93-4.91-2.36-4.91-4.32,0-2.52,1.88-4.23,5.31-4.23,3.84,0,5.37,2.06,5.58,4.18H51.29c-.15-.89-.64-1.86-2.51-1.86-1.27,0-2,.53-2,1.56s.62,1.41,3,1.95c4.21,1,5.13,2.56,5.13,4.6,0,2.65-2,4.46-5.83,4.46-3.67,0-5.61-1.81-6-4.45Z"/><path class="cls-2" d="M59.52,31.14c0,1.36.68,2.69,2.18,2.69a1.72,1.72,0,0,0,1.9-1.16h3a4.77,4.77,0,0,1-5,3.52c-3.58,0-5.13-2.68-5.13-5.53,0-3.41,1.75-5.85,5.24-5.85,3.73,0,5,2.7,5,5.42a6.56,6.56,0,0,1,0,.91Zm4.2-1.85c0-1.26-.53-2.33-2-2.33s-2,1-2.14,2.33Z"/><path class="cls-2" d="M71.36,31.14c0,1.36.69,2.69,2.18,2.69a1.71,1.71,0,0,0,1.9-1.16h3a4.76,4.76,0,0,1-5,3.52c-3.58,0-5.14-2.68-5.14-5.53,0-3.41,1.75-5.85,5.24-5.85,3.74,0,5,2.7,5,5.42a6.56,6.56,0,0,1,0,.91Zm4.2-1.85c0-1.26-.53-2.33-2-2.33s-2,1-2.14,2.33Z"/><path class="cls-2" d="M85.89,21.46h6C95,21.46,97,23.19,97,25.94c0,3.14-2.38,4.59-5.23,4.59H89v5.4H85.89ZM89,28h2.39c1.45,0,2.47-.56,2.47-2S92.8,24,91.48,24H89Z"/><path class="cls-2" d="M98.94,28c0-1.08,0-2,0-2.94h3c0,.24.07,1.32.07,1.9a3.49,3.49,0,0,1,3.49-2.16v2.88c-2.18-.06-3.49.53-3.49,3.51v4.73h-3Z"/><path class="cls-2" d="M117.13,30.48c0,3.29-2,5.71-5.41,5.71s-5.34-2.41-5.34-5.65,2-5.73,5.48-5.73C115.06,24.81,117.13,27.07,117.13,30.48Zm-7.69,0c0,2.09.9,3.33,2.35,3.33s2.29-1.24,2.29-3.31c0-2.28-.84-3.35-2.33-3.35S109.44,28.2,109.44,30.5Z"/><path class="cls-2" d="M129.3,20.61V33c0,1,0,2,0,3h-2.89c-.06-.32-.12-.88-.14-1.13a3.29,3.29,0,0,1-3.08,1.39c-2.75,0-4.5-2.21-4.5-5.6s1.86-5.78,4.94-5.78c1.56,0,2.4.56,2.64,1V20.61Zm-7.5,9.9c0,2.12.83,3.27,2.3,3.27,2.07,0,2.31-1.73,2.31-3.29,0-1.86-.27-3.27-2.23-3.27C122.6,27.22,121.8,28.46,121.8,30.51Z"/><path class="cls-2" d="M141.54,32.78c0,1,0,2.18,0,3.15h-2.95c0-.29-.06-.87-.08-1.25a3.09,3.09,0,0,1-3,1.51c-2.22,0-3.63-1.35-3.63-4V25.07h3v6.47c0,1.2.37,2.19,1.67,2.19s1.94-.73,1.94-2.88V25.07h3Z"/><path class="cls-2" d="M153.75,32.42a4.53,4.53,0,0,1-4.89,3.77c-3.38,0-5.12-2.35-5.12-5.61s2-5.77,5.26-5.77c3.67,0,4.69,2.63,4.75,3.86h-2.94a1.7,1.7,0,0,0-1.86-1.5c-1.38,0-2.16,1.21-2.16,3.31,0,2.31.83,3.37,2.14,3.37a1.85,1.85,0,0,0,1.86-1.43Z"/><path class="cls-2" d="M154.77,25.07h1.67V22.12h3v2.95h2.13v2.26h-2.13v5.36c0,.83.25,1.15,1.15,1.15a6,6,0,0,0,.69,0v2.07a6.65,6.65,0,0,1-2,.21c-2.12,0-2.82-1.13-2.82-3V27.33h-1.67Z"/></g></g></svg>