<svg xmlns="http://www.w3.org/2000/svg" viewBox="0 0 204 56"><defs><style>.cls-1{fill:#ffe300;}.cls-2{fill:#1d7bff;}</style></defs><title>Asset 26</title><g id="Layer_2" data-name="Layer 2"><g id="Layer_1-2" data-name="Layer 1"><rect class="cls-1" width="204" height="56" rx="28"/><path class="cls-2" d="M27.64,32.59l-1.13,3.34H23.44l4.91-14.47h3.93l5.13,14.47H34.12l-1.19-3.34ZM32.26,30c-1-3.05-1.69-5-2-6.3h0c-.35,1.42-1.08,3.69-1.9,6.3Z"/><path class="cls-2" d="M39,20.61h3v5.61a3.41,3.41,0,0,1,3.11-1.41c3,0,4.44,2.45,4.44,5.5s-1.6,5.88-4.73,5.88A3,3,0,0,1,42,34.9a5.11,5.11,0,0,1-.12,1H39c0-1.17,0-2.37,0-3.55Zm7.5,9.75c0-1.81-.67-3.14-2.3-3.14s-2.32,1.12-2.32,3.34c0,1.83.54,3.23,2.29,3.23C45.7,33.79,46.5,32.42,46.5,30.36Z"/><path class="cls-2" d="M61.86,30.48c0,3.29-2,5.71-5.41,5.71s-5.34-2.41-5.34-5.65,2-5.73,5.48-5.73C59.79,24.81,61.86,27.07,61.86,30.48Zm-7.69,0c0,2.09.9,3.33,2.35,3.33s2.29-1.24,2.29-3.31c0-2.28-.84-3.35-2.33-3.35S54.17,28.2,54.17,30.5Z"/><path class="cls-2" d="M73.5,32.78c0,1,0,2.18,0,3.15h-3c0-.29-.06-.87-.08-1.25a3.09,3.09,0,0,1-3,1.51c-2.21,0-3.63-1.35-3.63-4V25.07h3v6.47c0,1.2.37,2.19,1.67,2.19s1.94-.73,1.94-2.88V25.07h3Z"/><path class="cls-2" d="M75.33,25.07H77V22.12h3v2.95h2.13v2.26H80v5.36c0,.83.25,1.15,1.15,1.15a5.71,5.71,0,0,0,.68,0v2.07a6.56,6.56,0,0,1-2,.21C77.7,36.08,77,35,77,33V27.33H75.33Z"/><path class="cls-2" d="M92.59,21.46V35.93H89.46V21.46Z"/><path class="cls-2" d="M95.36,27.8c0-.92,0-1.93,0-2.73h2.92a11.53,11.53,0,0,1,.11,1.38,3.33,3.33,0,0,1,3.16-1.64c2.18,0,3.6,1.48,3.6,4.21v6.91h-3V29.35c0-1.22-.41-2.1-1.74-2.1s-2,.71-2,2.63v6.05h-3Z"/><path class="cls-2" d="M116.69,33.13a25.53,25.53,0,0,0,.14,2.8H114a3.87,3.87,0,0,1-.15-1.06c-.4.61-1.14,1.32-3.06,1.32A3.36,3.36,0,0,1,107,32.78c0-2.48,2-3.62,5.17-3.62h1.55V28.5c0-.78-.28-1.54-1.67-1.54s-1.55.54-1.69,1.33h-2.86c.16-1.93,1.36-3.49,4.66-3.48,2.91,0,4.5,1.16,4.5,3.75ZM113.75,31h-1.22c-1.82,0-2.49.55-2.49,1.6A1.4,1.4,0,0,0,111.61,34c1.91,0,2.14-1.33,2.14-2.77Z"/><path class="cls-2" d="M121.74,31.14c0,1.36.68,2.69,2.18,2.69a1.71,1.71,0,0,0,1.9-1.16h3a4.76,4.76,0,0,1-5,3.52c-3.58,0-5.13-2.68-5.13-5.53,0-3.41,1.75-5.85,5.24-5.85,3.73,0,5,2.7,5,5.42a6.56,6.56,0,0,1,0,.91Zm4.2-1.84c0-1.27-.53-2.33-2-2.33s-2,1-2.15,2.33Z"/><path class="cls-2" d="M132.94,25.07c1.13,2,1.59,2.85,1.92,3.4h0c.38-.66,1-1.85,1.92-3.4h3.34l-3.52,5.17,3.51,5.69h-3.4c-1-1.84-1.59-3-1.91-3.65h0c-.29.57-1,2-1.92,3.65h-3.29L133,30.64l-3.35-5.57Z"/><path class="cls-2" d="M144.41,35V40.1h-3V27.69c0-.88,0-1.75,0-2.62h2.91a12.49,12.49,0,0,1,.1,1.35,3.44,3.44,0,0,1,3.16-1.61c2.44,0,4.33,2.05,4.33,5.42,0,3.83-2.11,6-4.74,6A3,3,0,0,1,144.41,35Zm4.43-4.63c0-2-.8-3.11-2.23-3.11-1.71,0-2.32,1.09-2.32,3.28s.56,3.28,2.19,3.28S148.84,32.56,148.84,30.34Z"/><path class="cls-2" d="M164.21,30.48c0,3.29-2,5.71-5.41,5.71s-5.33-2.41-5.33-5.65,2-5.73,5.48-5.73C162.14,24.81,164.21,27.07,164.21,30.48Zm-7.69,0c0,2.09.9,3.33,2.35,3.33s2.29-1.24,2.29-3.31c0-2.28-.83-3.35-2.33-3.35S156.52,28.2,156.52,30.5Z"/><path class="cls-2" d="M166.28,28c0-1.08,0-2,0-2.94h3c0,.24.08,1.32.08,1.9a3.49,3.49,0,0,1,3.49-2.16v2.88c-2.19-.06-3.49.53-3.49,3.51v4.73h-3Z"/><path class="cls-2" d="M173.92,25.07h1.67V22.12h3v2.95h2.13v2.26H178.6v5.36c0,.83.26,1.15,1.15,1.15a6,6,0,0,0,.69,0v2.07a6.65,6.65,0,0,1-2,.21c-2.12,0-2.82-1.13-2.82-3V27.33h-1.67Z"/></g></g></svg>