<svg xmlns="http://www.w3.org/2000/svg" viewBox="0 0 127 56"><defs><style>.cls-1{fill:#ffe300;}.cls-2{fill:#1d7bff;}</style></defs><title>Asset 35</title><g id="Layer_2" data-name="Layer 2"><g id="Layer_1-2" data-name="Layer 1"><rect class="cls-1" width="127" height="56" rx="28"/><path class="cls-2" d="M33.69,33.21c.33,1.46,1.38,2.1,3.05,2.1s2.39-.66,2.39-1.72-.7-1.69-3.18-2.27C32,30.4,31,29,31,27c0-2.52,1.89-4.24,5.31-4.24,3.85,0,5.38,2.07,5.59,4.19H38.78c-.15-.89-.64-1.86-2.51-1.86-1.27,0-2,.52-2,1.55s.62,1.41,3,2c4.21,1,5.13,2.56,5.13,4.6,0,2.64-2,4.45-5.82,4.45s-5.61-1.81-6-4.45Z"/><path class="cls-2" d="M44.54,22.13h3v2.69h-3Zm0,4.46h3V37.46h-3Z"/><path class="cls-2" d="M60.13,36.13c0,3.49-1.28,5.7-5.4,5.7-4,0-4.75-2.22-4.85-3.44h3.06a1.74,1.74,0,0,0,1.93,1.25c2,0,2.32-1.19,2.32-3.32V35.8a3.23,3.23,0,0,1-3.07,1.53c-2.86,0-4.49-2.35-4.49-5.27,0-3.4,2-5.72,4.75-5.72,1.87,0,2.64.88,2.81,1.38,0-.29.09-.95.11-1.13h2.86c0,1,0,2.07,0,3.12Zm-7.41-4.2c0,1.87.93,3,2.27,3,1.81,0,2.29-1.24,2.29-3.07s-.32-3.08-2.23-3.08C53.74,28.75,52.72,29.75,52.72,31.93Z"/><path class="cls-2" d="M62.82,29.33c0-.93,0-1.94,0-2.74h2.92A11.7,11.7,0,0,1,65.83,28,3.31,3.31,0,0,1,69,26.34c2.19,0,3.61,1.47,3.61,4.2v6.92h-3V30.88c0-1.22-.41-2.11-1.74-2.11s-2,.71-2,2.63v6.06h-3Z"/><path class="cls-2" d="M80.34,22.13h3v2.69h-3Zm0,4.46h3V37.46h-3Z"/><path class="cls-2" d="M86.07,29.33c0-.93,0-1.94,0-2.74H89c.06.28.1,1,.12,1.39a3.31,3.31,0,0,1,3.15-1.64c2.18,0,3.6,1.47,3.6,4.2v6.92h-3V30.88c0-1.22-.4-2.11-1.73-2.11s-2,.71-2,2.63v6.06h-3Z"/></g></g></svg>