<svg xmlns="http://www.w3.org/2000/svg" xmlns:xlink="http://www.w3.org/1999/xlink" viewBox="0 0 350.77 102.73"><defs><style>.cls-1{fill:#9c9c9c;}.cls-2,.cls-3{fill:#fff;}.cls-2{stroke:#fff;stroke-miterlimit:10;stroke-width:0.16px;}.cls-4{fill:url(#linear-gradient);}.cls-5{fill:url(#linear-gradient-2);}.cls-6{fill:url(#linear-gradient-3);}.cls-7{fill:url(#linear-gradient-4);}</style><linearGradient id="linear-gradient" x1="72.14" y1="-5699.91" x2="28.63" y2="-5656.41" gradientTransform="matrix(1, 0, 0, -0.99, -15.67, -5566.71)" gradientUnits="userSpaceOnUse"><stop offset="0" stop-color="#0096ff"/><stop offset="0.01" stop-color="#0097ff"/><stop offset="0.26" stop-color="#00b4ff"/><stop offset="0.51" stop-color="#00c8ff"/><stop offset="0.76" stop-color="#00d5ff"/><stop offset="1" stop-color="#00d9ff"/></linearGradient><linearGradient id="linear-gradient-2" x1="103.33" y1="-5670.65" x2="40.62" y2="-5670.65" gradientTransform="matrix(1, 0, 0, -0.99, -15.67, -5566.71)" gradientUnits="userSpaceOnUse"><stop offset="0" stop-color="#ffd600"/><stop offset="0.41" stop-color="#ffb300"/><stop offset="0.78" stop-color="#ff9b00"/><stop offset="1" stop-color="#ff9200"/></linearGradient><linearGradient id="linear-gradient-3" x1="58.36" y1="-5686.32" x2="-0.63" y2="-5627.33" gradientTransform="matrix(1, 0, 0, -0.99, -15.67, -5566.71)" gradientUnits="userSpaceOnUse"><stop offset="0" stop-color="#ff3a44"/><stop offset="1" stop-color="#b91162"/></linearGradient><linearGradient id="linear-gradient-4" x1="12.92" y1="-5700.41" x2="39.27" y2="-5674.06" gradientTransform="matrix(1, 0, 0, -0.99, -15.67, -5566.71)" gradientUnits="userSpaceOnUse"><stop offset="0" stop-color="#329671"/><stop offset="0.07" stop-color="#2d9d71"/><stop offset="0.48" stop-color="#15c574"/><stop offset="0.8" stop-color="#06dd75"/><stop offset="1" stop-color="#00e676"/></linearGradient></defs><title>Asset 20</title><g id="Layer_2" data-name="Layer 2"><g id="Layer_1-2" data-name="Layer 1"><path d="M337.78,102.72H13A13,13,0,0,1,0,89.88v-77A13,13,0,0,1,13,0H337.78a13,13,0,0,1,13,12.84v77a13,13,0,0,1-13,12.85Z"/><path class="cls-1" d="M337.78,2.06a10.86,10.86,0,0,1,10.91,10.78v77a10.85,10.85,0,0,1-10.91,10.78H13A10.86,10.86,0,0,1,2.08,89.88v-77A10.86,10.86,0,0,1,13,2.06H337.78m0-2.06H13A13,13,0,0,0,0,12.84v77a13,13,0,0,0,13,12.85H337.78a13,13,0,0,0,13-12.85v-77A13,13,0,0,0,337.78,0Z"/><path class="cls-2" d="M123.21,26.3a7,7,0,0,1-1.93,5.15,7.65,7.65,0,0,1-5.74,2.28,7.9,7.9,0,0,1-5.73-2.31,7.71,7.71,0,0,1-2.36-5.74A7.67,7.67,0,0,1,109.81,20a7.87,7.87,0,0,1,5.73-2.32,8.32,8.32,0,0,1,3.2.65A6.35,6.35,0,0,1,121.18,20l-1.36,1.35a5.34,5.34,0,0,0-4.28-1.82,6,6,0,0,0-4.26,1.71,5.88,5.88,0,0,0-1.79,4.44,5.9,5.9,0,0,0,1.79,4.45,6,6,0,0,0,4.26,1.71,6,6,0,0,0,4.35-1.72A4.87,4.87,0,0,0,121.2,27h-5.66V25.14h7.55A5.26,5.26,0,0,1,123.21,26.3Zm12-6.43h-7.09v4.88h6.39v1.86h-6.39v4.88h7.09v1.89h-9.1V18h9.1Zm8.45,13.51h-2V19.87h-4.35V18H148v1.89h-4.35Zm12.1,0V18h2v15.4Zm10.89,0h-2V19.87h-4.37V18H171v1.89h-4.36Zm24.64-2a8.17,8.17,0,0,1-11.43,0,7.81,7.81,0,0,1-2.3-5.72,7.81,7.81,0,0,1,2.3-5.72,8.15,8.15,0,0,1,11.42,0,7.84,7.84,0,0,1,2.3,5.71A7.84,7.84,0,0,1,191.26,31.4Zm-9.95-1.29a6,6,0,0,0,8.46,0,6,6,0,0,0,1.74-4.43,6,6,0,0,0-1.74-4.43,6,6,0,0,0-8.46,0,6,6,0,0,0-1.74,4.43A6,6,0,0,0,181.31,30.11Zm15.06,3.27V18h2.44l7.57,12h.09L206.38,27V18h2v15.4h-2.09l-7.93-12.57h-.09l.09,3v9.6Z"/><path class="cls-3" d="M177,55.86a10.93,10.93,0,1,0,11.1,10.93A10.83,10.83,0,0,0,177,55.86Zm0,17.55a6.64,6.64,0,1,1,6.24-6.62A6.35,6.35,0,0,1,177,73.41Zm-24.2-17.55a10.93,10.93,0,1,0,11.09,10.93A10.83,10.83,0,0,0,152.84,55.86Zm0,17.55a6.64,6.64,0,1,1,6.23-6.62A6.36,6.36,0,0,1,152.84,73.41Zm-28.79-14.2v4.64h11.22a9.64,9.64,0,0,1-2.55,5.83,11.59,11.59,0,0,1-8.67,3.39,12.24,12.24,0,0,1-12.3-12.18v-.15A12.24,12.24,0,0,1,123.9,48.41h.15a12,12,0,0,1,8.45,3.31l3.31-3.27a16.47,16.47,0,0,0-11.76-4.67c-9.46,0-17.42,7.61-17.42,17s8,17,17.42,17a15.78,15.78,0,0,0,12-4.77c3.1-3.06,4.06-7.36,4.06-10.83a15.59,15.59,0,0,0-.25-2.9Zm117.73,3.6c-.92-2.44-3.73-7-9.47-7S221.9,60.29,221.9,66.79a10.75,10.75,0,0,0,11,10.92,11,11,0,0,0,9.21-4.85l-3.77-2.48a6.33,6.33,0,0,1-5.44,3,5.62,5.62,0,0,1-5.35-3.31l14.78-6-.51-1.24Zm-15.07,3.64a6,6,0,0,1,5.77-6.37,4.29,4.29,0,0,1,4.11,2.31ZM214.69,77h4.86V44.94h-4.86Zm-7.95-18.75h-.17a7.72,7.72,0,0,0-5.81-2.43,10.93,10.93,0,0,0,0,21.85,7.6,7.6,0,0,0,5.81-2.48h.17v1.56c0,4.18-2.26,6.42-5.9,6.42a6.13,6.13,0,0,1-5.57-3.9L191,81.06a10.55,10.55,0,0,0,9.8,6.45c5.69,0,10.5-3.31,10.5-11.37V56.52h-4.6v1.77Zm-5.56,15.12a6.64,6.64,0,0,1,0-13.25c3.3,0,5.9,2.81,5.9,6.66S204.48,73.41,201.18,73.41Zm63.34-28.47H252.9V77h4.85V64.88h6.77c5.39,0,10.66-3.85,10.66-10S269.9,44.94,264.52,44.94Zm.13,15.47h-6.9v-11h6.9a5.5,5.5,0,1,1,0,11Zm30-4.61c-3.5,0-7.15,1.53-8.64,4.91l4.3,1.79a4.58,4.58,0,0,1,4.42-2.36c2.52,0,5.07,1.49,5.11,4.13v.33a10.8,10.8,0,0,0-5.07-1.24c-4.63,0-9.35,2.52-9.35,7.22,0,4.31,3.8,7.07,8.06,7.07a6.88,6.88,0,0,0,6.19-3.14h.17V77h4.68V64.68C304.48,59,300.18,55.8,294.61,55.8ZM294,73.39c-1.58,0-3.79-.77-3.79-2.72,0-2.48,2.75-3.44,5.14-3.44a8.83,8.83,0,0,1,4.43,1.08A5.85,5.85,0,0,1,294,73.39ZM321.53,56.5,316,70.42h-.17L310,56.5h-5.22L313.46,76l-4.94,10.82h5.07L326.92,56.5ZM277.85,77h4.86V44.94h-4.86Z"/><path class="cls-4" d="M27.11,19.36A5.09,5.09,0,0,0,25.91,23V79.76a5.06,5.06,0,0,0,1.2,3.61l.19.18L59.5,51.74V51L27.3,19.17Z"/><path class="cls-5" d="M70.22,62.35,59.5,51.74V51l10.74-10.6.24.13,12.71,7.15c3.63,2,3.63,5.37,0,7.41L70.48,62.21Z"/><path class="cls-6" d="M70.48,62.21l-11-10.85-32.39,32c1.21,1.26,3.17,1.41,5.41.16l38-21.32"/><path class="cls-7" d="M70.48,40.51l-38-21.31c-2.24-1.24-4.2-1.09-5.41.16l32.39,32Z"/></g></g></svg>