<svg xmlns="http://www.w3.org/2000/svg" xmlns:xlink="http://www.w3.org/1999/xlink" viewBox="0 0 352.39 352.39"><defs><style>.cls-1{isolation:isolate;}.cls-2{mix-blend-mode:multiply;fill:url(#radial-gradient);}.cls-3{fill:#fff;}.cls-4{fill:#007f50;}</style><radialGradient id="radial-gradient" cx="176.2" cy="176.2" r="176.2" gradientTransform="translate(176.2 -72.98) rotate(45)" gradientUnits="userSpaceOnUse"><stop offset="0.18" stop-color="#8d8d8d"/><stop offset="0.33" stop-color="#adadad"/><stop offset="0.52" stop-color="#d0d0d0"/><stop offset="0.71" stop-color="#eaeaea"/><stop offset="0.87" stop-color="#fafafa"/><stop offset="1" stop-color="#fff"/></radialGradient></defs><title>Asset 5</title><g class="cls-1"><g id="Layer_2" data-name="Layer 2"><g id="Layer_1-2" data-name="Layer 1"><circle class="cls-2" cx="176.2" cy="176.2" r="176.2" transform="translate(-72.98 176.2) rotate(-45)"/><circle class="cls-3" cx="176.7" cy="147.55" r="104.97" transform="translate(-52.58 168.16) rotate(-45)"/><circle class="cls-4" cx="176.7" cy="147.55" r="101.64" transform="translate(-52.58 168.16) rotate(-45)"/><path class="cls-3" d="M192.24,98.9v6.81C184.48,116.5,177,132.47,175,146.28h-9.22c2-13.78,10.45-31,17.31-39.91H160V98.9Z"/><path class="cls-3" d="M117.3,157v14.52h-2.72V157Z"/><path class="cls-3" d="M120.24,163.41c0-.92,0-1.91,0-2.72h2.54c0,.29.09,1.17.1,1.51a3.3,3.3,0,0,1,3.22-1.76c2.12,0,3.58,1.39,3.58,4.15v6.89H127v-6.59c0-1.35-.48-2.3-1.91-2.3s-2.28,1-2.28,3v5.91h-2.61Z"/><path class="cls-3" d="M131.13,160.69h1.74v-3h2.61v3h2.2v2h-2.2v5.66c0,.9.25,1.29,1.17,1.29a4.15,4.15,0,0,0,.76,0v1.84a6.17,6.17,0,0,1-1.87.2c-2,0-2.67-1-2.67-2.9v-6h-1.74Z"/><path class="cls-3" d="M141.37,166.62c0,1.64.83,3,2.43,3a2,2,0,0,0,2.12-1.33h2.62a4.62,4.62,0,0,1-4.81,3.4c-3.5,0-5-2.69-5-5.5,0-3.33,1.69-5.79,5.1-5.79,3.63,0,4.85,2.72,4.85,5.28a6.41,6.41,0,0,1,0,.9Zm4.7-1.66c0-1.43-.66-2.61-2.24-2.61s-2.26,1.1-2.4,2.61Z"/><path class="cls-3" d="M150.88,163.62c0-1.22,0-2.14,0-2.93h2.56c0,.26.07,1.26.07,2a3.57,3.57,0,0,1,3.52-2.25V163c-2.18,0-3.52.77-3.52,3.65v4.88h-2.61Z"/><path class="cls-3" d="M158.69,163.41c0-.92,0-1.91,0-2.72h2.53c.05.29.09,1.17.1,1.51a3.31,3.31,0,0,1,3.22-1.76c2.12,0,3.58,1.39,3.58,4.15v6.89h-2.61v-6.59c0-1.35-.48-2.3-1.91-2.3s-2.28,1-2.28,3v5.91h-2.61Z"/><path class="cls-3" d="M179.46,168.84a22.65,22.65,0,0,0,.14,2.64h-2.49a4.45,4.45,0,0,1-.16-1.17c-.39.64-1.17,1.42-3.14,1.42a3.31,3.31,0,0,1-3.67-3.35c0-2.44,1.94-3.57,5.12-3.57h1.64v-.74c0-.83-.28-1.72-1.88-1.72-1.44,0-1.73.65-1.89,1.45h-2.49c.16-1.77,1.25-3.38,4.47-3.36,2.81,0,4.35,1.12,4.35,3.65Zm-2.55-2.39h-1.4c-1.91,0-2.74.57-2.74,1.77a1.56,1.56,0,0,0,1.73,1.61c2.14,0,2.41-1.47,2.41-3.07Z"/><path class="cls-3" d="M181,160.69h1.73v-3h2.61v3h2.2v2h-2.2v5.66c0,.9.25,1.29,1.17,1.29a4.25,4.25,0,0,0,.77,0v1.84a6.24,6.24,0,0,1-1.88.2c-2,0-2.67-1-2.67-2.9v-6H181Z"/><path class="cls-3" d="M189.31,156.13h2.61v2.55h-2.61Zm0,4.56h2.61v10.79h-2.61Z"/><path class="cls-3" d="M204.56,166.07c0,3.21-1.9,5.66-5.28,5.66s-5.19-2.38-5.19-5.62,2-5.67,5.32-5.67C202.53,160.44,204.56,162.68,204.56,166.07Zm-7.81,0c0,2.17,1,3.57,2.6,3.57s2.55-1.37,2.55-3.56-.92-3.59-2.59-3.59S196.75,163.74,196.75,166.09Z"/><path class="cls-3" d="M206.76,163.41c0-.92,0-1.91,0-2.72h2.53c0,.29.09,1.17.1,1.51a3.3,3.3,0,0,1,3.22-1.76c2.12,0,3.58,1.39,3.58,4.15v6.89h-2.61v-6.59c0-1.35-.48-2.3-1.91-2.3s-2.28,1-2.28,3v5.91h-2.61Z"/><path class="cls-3" d="M227.52,168.84a22.05,22.05,0,0,0,.15,2.64h-2.49a4.45,4.45,0,0,1-.16-1.17c-.39.64-1.17,1.42-3.14,1.42a3.31,3.31,0,0,1-3.67-3.35c0-2.44,1.94-3.57,5.12-3.57H225v-.74c0-.83-.28-1.72-1.88-1.72s-1.73.65-1.89,1.45h-2.49c.16-1.77,1.25-3.38,4.47-3.36,2.81,0,4.34,1.12,4.34,3.65ZM225,166.45h-1.4c-1.92,0-2.75.57-2.75,1.77a1.56,1.56,0,0,0,1.74,1.61c2.14,0,2.41-1.47,2.41-3.07Z"/><path class="cls-3" d="M230.41,171.48V156.13H233v15.35Z"/><path class="cls-3" d="M155.34,190.24h-7v4.19h7.75l-.33,2.25H145.65V182.16h10v2.26H148.3V188h7Z"/><path class="cls-3" d="M159.61,185.89c1.17,3.91,2.09,7.14,2.34,8.46h0c.29-1.59,1.38-4.84,2.55-8.46h2.61l-3.86,10.79h-2.78l-3.69-10.79Z"/><path class="cls-3" d="M170.55,191.82c0,1.64.82,3,2.43,3a2,2,0,0,0,2.12-1.33h2.62a4.62,4.62,0,0,1-4.81,3.4c-3.5,0-5-2.69-5-5.5,0-3.33,1.69-5.79,5.1-5.79,3.63,0,4.85,2.72,4.85,5.28a6.41,6.41,0,0,1,0,.9Zm4.7-1.65c0-1.44-.66-2.62-2.24-2.62s-2.26,1.1-2.4,2.62Z"/><path class="cls-3" d="M180.08,188.61c0-.93,0-1.91,0-2.72h2.53a14.28,14.28,0,0,1,.11,1.51,3.3,3.3,0,0,1,3.22-1.76c2.11,0,3.58,1.39,3.58,4.15v6.89h-2.61v-6.59c0-1.35-.48-2.3-1.91-2.3s-2.28,1-2.28,3v5.91h-2.61Z"/><path class="cls-3" d="M191,185.89h1.74v-3h2.61v3h2.2v2h-2.2v5.66c0,.9.25,1.29,1.17,1.29a4.15,4.15,0,0,0,.76-.05v1.84a6.17,6.17,0,0,1-1.87.2c-2,0-2.67-1-2.67-2.9v-6H191Z"/><path class="cls-3" d="M201.21,193.49a2.06,2.06,0,0,0,2.25,1.52c1.26,0,1.74-.49,1.74-1.25s-.48-1.14-2.2-1.56c-3.37-.83-4-1.87-4-3.37s1.12-3.19,4.21-3.19,4.23,1.73,4.34,3.2h-2.5c-.11-.5-.47-1.32-2-1.32-1.16,0-1.52.53-1.52,1.09s.37.93,2.2,1.37c3.49.81,4.05,2,4.05,3.59,0,1.82-1.41,3.36-4.5,3.36s-4.47-1.52-4.72-3.44Z"/></g></g></g></svg>