<svg xmlns="http://www.w3.org/2000/svg" xmlns:xlink="http://www.w3.org/1999/xlink" viewBox="0 0 352.39 352.39"><defs><style>.cls-1{isolation:isolate;}.cls-2{mix-blend-mode:multiply;fill:url(#radial-gradient);}.cls-3{fill:#fff;}.cls-4{fill:#ff1470;}</style><radialGradient id="radial-gradient" cx="176.2" cy="176.2" r="176.2" gradientTransform="translate(176.2 -72.98) rotate(45)" gradientUnits="userSpaceOnUse"><stop offset="0.18" stop-color="#8d8d8d"/><stop offset="0.33" stop-color="#adadad"/><stop offset="0.52" stop-color="#d0d0d0"/><stop offset="0.71" stop-color="#eaeaea"/><stop offset="0.87" stop-color="#fafafa"/><stop offset="1" stop-color="#fff"/></radialGradient></defs><title>Asset 8</title><g class="cls-1"><g id="Layer_2" data-name="Layer 2"><g id="Layer_1-2" data-name="Layer 1"><circle class="cls-2" cx="176.2" cy="176.2" r="176.2" transform="translate(-72.98 176.2) rotate(-45)"/><circle class="cls-3" cx="176.7" cy="147.55" r="104.97" transform="translate(-8.02 284.92) rotate(-76.5)"/><circle class="cls-4" cx="176.7" cy="147.55" r="101.64" transform="translate(-52.58 168.16) rotate(-45)"/><path class="cls-3" d="M88.92,147.13a12.61,12.61,0,0,1,8-11.61c-3.81-2.18-6.1-5.17-6.1-10,0-7.8,5.64-13.13,16-13.13,9.46,0,15.55,5.12,15.55,13,0,5.33-2.79,8.22-6.23,9.63a12.41,12.41,0,0,1,8,11.77c0,9.52-7.54,14.71-18,14.71C96.62,161.55,88.92,156.31,88.92,147.13Zm26.24-.4c0-5.14-3.44-7.65-8.61-7.65-5.77,0-8.59,3.19-8.59,7.6,0,4.59,3.35,7.8,8.72,7.8C111.62,154.48,115.16,152,115.16,146.73ZM99.44,125.8c0,3.48,2.39,6,7.29,6,4.71,0,7.09-2,7.09-6,0-3.78-2.45-6.43-7.18-6.43C101.73,119.46,99.44,121.84,99.44,125.8Z"/><path class="cls-3" d="M126.88,169a57.42,57.42,0,0,0,5.25-20.25h9.15c-.71,6.88-3.06,14.67-7.37,20.25Z"/><path class="cls-3" d="M181.15,136.68c0,12.59-3.87,24.87-17.65,24.87-13.57,0-17.63-11.73-17.63-24.56s4.47-24.55,17.85-24.55C176.76,112.44,181.15,123.68,181.15,136.68Zm-26,.23c0,8.82,1.19,17.39,8.45,17.39s8.24-8.07,8.24-17.57c0-9.17-1.26-17-8.1-17S155.15,126.6,155.15,136.91Z"/><path class="cls-3" d="M212.65,124.42c-.7-2.71-2.34-5.06-6.71-5.06-6.91,0-8.88,6.47-9.15,14.08,2-2.74,5.39-5.13,11.17-5.13,8.85,0,14.74,6.49,14.74,15.74,0,9.84-6.14,17.5-16.92,17.5-13.51,0-17.83-10.59-17.83-24,0-12.58,4.32-25.15,18.38-25.15,10.08,0,14.52,6.39,15,12Zm1,20.35c0-4.77-1.8-9.37-8-9.37-5,0-8.22,3-8.22,9.11,0,3.86,1.89,9.82,8.17,9.82C211.24,154.33,213.69,150,213.69,144.77Z"/><path class="cls-3" d="M261.18,120.72H241.91c-.35,3-1.29,8.41-1.66,10.55,1.86-1.72,4.68-3,9-3,9.12,0,14.5,6.5,14.5,15.75s-5,17.49-17.31,17.49c-9.06,0-15.68-4.76-16.8-13.1h9c1,3.63,3.53,6.11,8,6.11,5.42,0,8.05-3.95,8.05-9.78,0-5.35-2.06-9.26-7.89-9.26-4.86,0-6.84,2.08-8.12,5.23l-8.15-1.16c1.32-6.08,3.27-20,4-26.29h27.87Z"/><path class="cls-3" d="M92.43,169.83v12.45H90.09V169.83Z"/><path class="cls-3" d="M94.94,175.36c0-.79,0-1.64,0-2.33h2.17c0,.25.08,1,.09,1.29a2.84,2.84,0,0,1,2.76-1.51c1.82,0,3.08,1.19,3.08,3.56v5.91h-2.24v-5.65c0-1.16-.42-2-1.64-2s-2,.85-2,2.56v5.07H94.94Z"/><path class="cls-3" d="M113.67,169.11v10.6c0,.86,0,1.71,0,2.57h-2.15a9.85,9.85,0,0,1-.1-1.08,2.81,2.81,0,0,1-2.72,1.3c-2.36,0-3.84-1.9-3.84-4.76s1.58-4.93,4.18-4.93c1.44,0,2.16.54,2.38,1v-4.68Zm-6.49,8.57c0,1.94.82,3,2.14,3,1.9,0,2.19-1.51,2.19-3.08,0-1.74-.29-3-2.1-3C108,174.63,107.18,175.76,107.18,177.68Z"/><path class="cls-3" d="M124.47,177.64c0,2.75-1.63,4.86-4.52,4.86s-4.45-2.05-4.45-4.82,1.67-4.87,4.56-4.87C122.73,172.81,124.47,174.73,124.47,177.64Zm-6.69,0c0,1.87.85,3.07,2.22,3.07s2.19-1.18,2.19-3.05-.79-3.08-2.22-3.08S117.78,175.65,117.78,177.65Z"/><path class="cls-3" d="M126.35,175.36c0-.79,0-1.64,0-2.33h2.17c.05.25.08,1,.09,1.29a2.84,2.84,0,0,1,2.76-1.51c1.82,0,3.08,1.19,3.08,3.56v5.91h-2.24v-5.65c0-1.16-.42-2-1.64-2s-2,.85-2,2.56v5.07h-2.24Z"/><path class="cls-3" d="M138.53,178.12c0,1.4.7,2.6,2.08,2.6a1.68,1.68,0,0,0,1.82-1.14h2.25a4,4,0,0,1-4.13,2.92c-3,0-4.28-2.31-4.28-4.72,0-2.85,1.45-5,4.37-5,3.12,0,4.16,2.33,4.16,4.53a6.44,6.44,0,0,1,0,.78Zm4-1.43c0-1.22-.56-2.24-1.92-2.24s-1.93,1-2,2.24Z"/><path class="cls-3" d="M148.23,179.54a1.77,1.77,0,0,0,1.92,1.31c1.09,0,1.5-.42,1.5-1.08s-.41-1-1.88-1.33c-2.89-.71-3.41-1.6-3.41-2.89s1-2.74,3.62-2.74,3.62,1.48,3.72,2.75h-2.14c-.1-.43-.4-1.14-1.68-1.14-1,0-1.31.46-1.31.94s.32.8,1.89,1.17c3,.7,3.47,1.72,3.47,3.08,0,1.57-1.21,2.89-3.86,2.89s-3.83-1.31-4-3Z"/><path class="cls-3" d="M155.73,169.11H158v2.19h-2.24Zm0,3.92H158v9.25h-2.24Z"/><path class="cls-3" d="M167.74,180a19.78,19.78,0,0,0,.12,2.26h-2.14a4.29,4.29,0,0,1-.13-1,2.78,2.78,0,0,1-2.69,1.23,2.84,2.84,0,0,1-3.16-2.88c0-2.09,1.67-3.06,4.4-3.06h1.41v-.64c0-.71-.25-1.47-1.62-1.47s-1.48.56-1.62,1.25h-2.13c.13-1.52,1.07-2.9,3.83-2.89,2.41,0,3.73,1,3.73,3.14ZM165.55,178h-1.19c-1.65,0-2.36.48-2.36,1.51a1.33,1.33,0,0,0,1.49,1.38c1.83,0,2.06-1.25,2.06-2.63Z"/><path class="cls-3" d="M170.22,175.36c0-.79,0-1.64,0-2.33h2.17c0,.25.08,1,.09,1.29a2.84,2.84,0,0,1,2.76-1.51c1.81,0,3.07,1.19,3.07,3.56v5.91h-2.24v-5.65c0-1.16-.41-2-1.64-2s-1.95.85-1.95,2.56v5.07h-2.24Z"/><path class="cls-3" d="M193.77,176.76h-6v3.59h6.65l-.28,1.93h-8.64V169.83H194v1.94h-6.31v3h6Z"/><path class="cls-3" d="M197.94,173c1.08,1.85,1.52,2.6,1.82,3.09h0c.34-.58,1-1.66,1.85-3.09h2.49l-3.05,4.42,3.05,4.83h-2.54L199.73,179h0c-.26.5-.93,1.71-1.84,3.29h-2.46l3-4.55-2.91-4.7Z"/><path class="cls-3" d="M207.55,181.35v4.51h-2.23V175.27c0-.75,0-1.51,0-2.24h2.17a10.35,10.35,0,0,1,.08,1.25,3,3,0,0,1,2.8-1.47c2.1,0,3.69,1.76,3.69,4.61,0,3.28-1.79,5.08-4,5.08A2.63,2.63,0,0,1,207.55,181.35Zm4.21-3.84c0-1.79-.76-2.88-2.1-2.88-1.61,0-2.2,1-2.2,3s.52,3,2.09,3S211.76,179.52,211.76,177.51Z"/><path class="cls-3" d="M224.4,177.64c0,2.75-1.62,4.86-4.52,4.86s-4.45-2.05-4.45-4.82,1.68-4.87,4.57-4.87C222.67,172.81,224.4,174.73,224.4,177.64Zm-6.69,0c0,1.87.85,3.07,2.23,3.07s2.18-1.18,2.18-3.05-.79-3.08-2.22-3.08S217.71,175.65,217.71,177.65Z"/><path class="cls-3" d="M226.27,175.54c0-1,0-1.83,0-2.51h2.19c0,.22.06,1.07.06,1.71a3.07,3.07,0,0,1,3-1.93V175c-1.87,0-3,.65-3,3.12v4.19h-2.24Z"/><path class="cls-3" d="M232.53,173H234v-2.59h2.24V173h1.89v1.71h-1.89v4.86c0,.77.22,1.1,1,1.1a3.94,3.94,0,0,0,.66,0v1.57a5.14,5.14,0,0,1-1.61.18c-1.68,0-2.3-.89-2.3-2.48v-5.19h-1.48Z"/><path class="cls-3" d="M241.3,178.12c0,1.4.71,2.6,2.09,2.6a1.68,1.68,0,0,0,1.82-1.14h2.24a4,4,0,0,1-4.12,2.92c-3,0-4.28-2.31-4.28-4.72,0-2.85,1.45-5,4.37-5,3.12,0,4.16,2.33,4.16,4.53a6.44,6.44,0,0,1,0,.78Zm4-1.43c0-1.22-.56-2.24-1.92-2.24s-1.93,1-2,2.24Z"/><path class="cls-3" d="M249.46,175.54c0-1,0-1.83,0-2.51h2.19c0,.22.06,1.07.06,1.71a3.07,3.07,0,0,1,3-1.93V175c-1.87,0-3,.65-3,3.12v4.19h-2.23Z"/><path class="cls-3" d="M257.83,179.54a1.77,1.77,0,0,0,1.92,1.31c1.09,0,1.5-.42,1.5-1.08s-.41-1-1.88-1.33c-2.89-.71-3.41-1.6-3.41-2.89s1-2.74,3.62-2.74,3.62,1.48,3.72,2.75h-2.14c-.1-.43-.4-1.14-1.68-1.14-1,0-1.31.46-1.31.94s.32.8,1.89,1.17c3,.7,3.47,1.72,3.47,3.08,0,1.57-1.21,2.89-3.86,2.89s-3.83-1.31-4.05-3Z"/></g></g></g></svg>